<?xml version="1.0" encoding="utf-8"?>
<svg width="100px" height="100px" viewBox="0 0 100 100" version="1.1" xmlns:xlink="http://www.w3.org/1999/xlink" xmlns="http://www.w3.org/2000/svg">
  <defs>
    <path d="M0 0L100 0L100 100L0 100L0 0Z" id="path_1" />
    <clipPath id="mask_1">
      <use xlink:href="#path_1" />
    </clipPath>
  </defs>
  <g id="alternate_email_FILL0_wght400_GRAD0_opsz48" transform="translate(64 1066.0117)">
    <path d="M0 0L100 0L100 100L0 100L0 0Z" id="Background" fill="#FFFFFF" fill-opacity="0" fill-rule="evenodd" stroke="none" />
    <g clip-path="url(#mask_1)">
      <path d="M50.0004 91.6634C44.2365 91.6634 38.8199 90.5697 33.7504 88.3822C28.681 86.1947 24.2712 83.2259 20.5212 79.4759C16.7712 75.7259 13.8025 71.3162 11.615 66.2467C9.42749 61.1773 8.33374 55.7606 8.33374 49.9967C8.33374 44.2329 9.42749 38.8162 11.615 33.7467C13.8025 28.6773 16.7712 24.2676 20.5212 20.5176C24.2712 16.7676 28.681 13.7988 33.7504 11.6113C38.8199 9.42383 44.2365 8.33008 50.0004 8.33008C55.7643 8.33008 61.181 9.42383 66.2504 11.6113C71.3198 13.7988 75.7296 16.7676 79.4796 20.5176C83.2296 24.2676 86.1983 28.6773 88.3858 33.7467C90.5733 38.8162 91.6671 44.2329 91.6671 49.9967L91.6671 55.5176C91.6671 59.4065 90.2955 62.6877 87.5525 65.3613C84.8094 68.0349 81.4587 69.3717 77.5004 69.3717C75.0004 69.3717 72.6393 68.7641 70.4171 67.5488C68.1949 66.3335 66.4935 64.6148 65.3129 62.3926C63.5073 64.7537 61.2504 66.5072 58.5421 67.653C55.8337 68.7988 52.9865 69.3717 50.0004 69.3717C44.5837 69.3717 39.983 67.4967 36.1983 63.7467C32.4136 59.9967 30.5212 55.4134 30.5212 49.9967C30.5212 44.5801 32.4136 39.962 36.1983 36.1426C39.983 32.3231 44.5837 30.4134 50.0004 30.4134C55.4171 30.4134 60.0178 32.3231 63.8025 36.1426C67.5872 39.962 69.4796 44.5801 69.4796 49.9967L69.4796 55.5176C69.4796 57.6704 70.2608 59.4759 71.8233 60.9342C73.3858 62.3926 75.2782 63.1217 77.5004 63.1217C79.6532 63.1217 81.5108 62.3926 83.0733 60.9342C84.6358 59.4759 85.4171 57.6704 85.4171 55.5176L85.4171 49.9967C85.4171 40.1356 81.9796 31.7676 75.1046 24.8926C68.2296 18.0176 59.8615 14.5801 50.0004 14.5801C40.1393 14.5801 31.7712 18.0176 24.8962 24.8926C18.0212 31.7676 14.5837 40.1356 14.5837 49.9967C14.5837 59.8579 18.0212 68.2259 24.8962 75.1009C31.7712 81.9759 40.1393 85.4134 50.0004 85.4134L72.2921 85.4134L72.2921 91.6634L50.0004 91.6634ZM50.0004 63.1217C53.681 63.1217 56.806 61.8544 59.3754 59.3197C61.9448 56.7849 63.2296 53.6773 63.2296 49.9967C63.2296 46.2467 61.9448 43.087 59.3754 40.5176C56.806 37.9481 53.681 36.6634 50.0004 36.6634C46.3198 36.6634 43.1949 37.9481 40.6254 40.5176C38.056 43.087 36.7712 46.2467 36.7712 49.9967C36.7712 53.6773 38.056 56.7849 40.6254 59.3197C43.1949 61.8544 46.3198 63.1217 50.0004 63.1217L50.0004 63.1217Z" id="Shape" fill="#000000" fill-rule="evenodd" stroke="none" />
    </g>
  </g>
</svg>