<?xml version="1.0" encoding="utf-8"?>
<svg width="1216.5px" height="811px" viewBox="0 0 1216.5 811" version="1.1" xmlns:xlink="http://www.w3.org/1999/xlink" xmlns="http://www.w3.org/2000/svg">
  <defs>
    <linearGradient gradientUnits="userSpaceOnUse" x1="432.65808" y1="769.964" x2="423.61407" y2="-536.80444" id="gradient_1">
      <stop offset="0%" stop-color="#FFFFFF" />
      <stop offset="100%" stop-color="#EEEEEE" />
    </linearGradient>
    <linearGradient gradientUnits="userSpaceOnUse" x1="473.5267" y1="50.628044" x2="473.49158" y2="-35.301445" id="gradient_2">
      <stop offset="0%" stop-color="#FFFFFF" />
      <stop offset="100%" stop-color="#EEEEEE" />
    </linearGradient>
    <linearGradient gradientUnits="userSpaceOnUse" x1="-25.136126" y1="115.40191" x2="128.88489" y2="-89.78644" id="gradient_3">
      <stop offset="0%" stop-color="#FFFFFF" />
      <stop offset="100%" stop-color="#EEEEEE" />
    </linearGradient>
    <linearGradient gradientUnits="userSpaceOnUse" x1="10.406505" y1="33.37937" x2="11.055327" y2="-23.266203" id="gradient_4">
      <stop offset="0%" stop-color="#FFFFFF" />
      <stop offset="100%" stop-color="#EEEEEE" />
    </linearGradient>
    <linearGradient gradientUnits="userSpaceOnUse" x1="10.413239" y1="33.377983" x2="11.062007" y2="-23.266203" id="gradient_5">
      <stop offset="0%" stop-color="#FFFFFF" />
      <stop offset="100%" stop-color="#EEEEEE" />
    </linearGradient>
  </defs>
  <g id="62" transform="translate(0.75 -3)">
    <path d="M0 0L1216.5 0L1216.5 811L0 811L0 0Z" id="Shape" fill="#FFFFFF" fill-opacity="0" stroke="none" />
    <path d="M473.043 183.597C601.935 176.301 737.071 214.306 717.208 269.4C697.342 324.494 823.407 249.832 873.713 269.696C909.53 283.837 895.213 326.886 912.539 344.234C952.267 384.005 992.9 333.922 1043.46 363.973C1094.03 394.024 990.504 674.493 937.682 676.06L335.199 672.487L291.963 668.697C291.963 668.697 172.366 604.898 257.918 546.044C315.766 506.25 274.144 477.352 267.852 459.133C260.628 438.216 243.774 401.683 317.212 374.874C390.651 348.065 371.689 289.73 369.882 277.653C368.078 265.571 344.155 190.894 473.043 183.597L473.043 183.597Z" id="Shape" fill="url(#gradient_1)" stroke="none" />
    <path d="M665.02 697.46C915.846 697.46 1119.18 690.198 1119.18 681.24C1119.18 672.283 915.846 665.02 665.02 665.02C414.194 665.02 210.86 672.283 210.86 681.24C210.86 690.198 414.194 697.46 665.02 697.46L665.02 697.46Z" id="Shape" fill="url(#gradient_2)" stroke="none" />
    <path d="M258.447 572.997C258.447 572.997 283.542 526.605 349.254 481.349C365.496 470.161 378.812 452.782 389.26 434.919C408.656 401.758 418.169 366.926 418.169 366.926C418.169 366.926 325.656 377.589 289.317 436.952C252.979 496.313 258.447 572.997 258.447 572.997L258.447 572.997Z" id="Shape" fill="#0011FF" stroke="none" />
    <path d="M258.218 574.206C258.845 574.161 259.374 573.703 259.471 573.099C269.042 522.905 295.034 485.145 315.179 462.283C337.014 437.548 356.775 424.532 356.976 424.413C357.612 423.982 357.797 423.128 357.366 422.492C357.163 422.185 356.846 421.971 356.486 421.898C356.125 421.825 355.75 421.899 355.444 422.103C355.242 422.222 335.146 435.437 313.085 460.469C292.71 483.557 266.4 521.76 256.733 572.558C256.659 572.917 256.734 573.291 256.941 573.593C257.147 573.896 257.468 574.101 257.829 574.163C258.006 574.186 258.113 574.213 258.218 574.206L258.218 574.206Z" id="Shape" fill="#31446C" stroke="none" />
    <path d="M270.551 571.117C270.551 571.117 277.458 554.389 314.065 555.846C350.669 557.269 372.276 576.031 434.263 535.108C434.263 535.108 382.961 498.196 331.101 510.028C279.204 521.828 276.595 542.282 270.551 571.117L270.551 571.117Z" id="Shape" fill="#0011FF" stroke="none" />
    <path d="M270.474 572.49C270.927 572.457 271.363 572.182 271.612 571.742C271.769 571.486 286.171 544.792 311.965 538.183C357.04 526.624 389.131 538.993 389.457 539.146C390.174 539.415 390.975 539.062 391.259 538.351C391.525 537.643 391.192 536.851 390.499 536.546C390.175 536.429 357.252 523.699 311.282 535.497C284.283 542.402 269.791 569.312 269.171 570.443C268.799 571.137 269.068 571.959 269.76 572.33C269.945 572.457 270.229 572.507 270.474 572.49L270.474 572.49Z" id="Shape" fill="#31446C" stroke="none" />
    <path d="M254.398 568.342C254.398 568.342 256.307 550.358 223.452 534.152C190.597 517.944 162.669 524.109 127.735 458.572C127.735 458.572 190.427 450.631 230.383 485.793C270.336 520.885 262.834 540.11 254.398 568.342L254.398 568.342Z" id="Shape" fill="#0011FF" stroke="none" />
    <path d="M254.677 569.795C255.374 569.745 255.964 569.142 255.949 568.442C255.961 567.145 256.027 536.597 235.635 517.644C200.862 485.338 165.859 480.82 165.54 480.773C164.79 480.689 164.11 481.221 164.013 481.969C163.928 482.72 164.46 483.399 165.209 483.497C165.563 483.541 199.682 487.982 233.78 519.669C253.308 537.808 253.224 568.111 253.212 568.427C253.203 568.796 253.343 569.153 253.599 569.418C253.855 569.683 254.207 569.834 254.576 569.839C254.573 569.803 254.608 569.801 254.677 569.795L254.677 569.795Z" id="Shape" fill="#31446C" stroke="none" />
    <path d="M270.058 692.108C317.766 692.108 348.127 684.518 343.259 650.905C340.167 629.565 323.534 608.686 311.792 596.252C310.281 594.656 308.743 593.087 307.177 591.545C302.817 587.254 299.888 584.763 299.888 584.763L299.748 583.979L298.918 579.272L297.949 573.851L295.758 561.438L294.996 557.102L270.058 556.017L244.034 557.102L243.435 561.438L242.512 568.267L240.989 579.295L240.344 584.002L240.251 584.786C240.251 584.786 237.322 587.254 232.961 591.568C231.401 593.116 229.863 594.685 228.346 596.275C216.605 608.686 199.971 629.588 196.88 650.928C191.988 684.518 222.349 692.108 270.058 692.108L270.058 692.108Z" id="Shape" fill="#31446C" stroke="none" />
    <path d="M234.337 564.97L306.474 564.97C310.337 564.97 313.5 561.807 313.5 557.944L313.5 553.549C313.5 549.686 310.337 546.523 306.474 546.523L234.337 546.523C230.474 546.523 227.311 549.686 227.311 553.549L227.311 557.944C227.311 561.807 230.474 564.97 234.337 564.97L234.337 564.97Z" id="Shape" fill="#31446C" stroke="none" />
    <path d="M223.025 392.209C223.025 399.678 216.668 405.726 208.816 405.726C200.964 405.726 194.64 399.649 194.64 392.209C194.64 384.738 200.997 378.692 208.849 378.692C216.701 378.692 223.025 384.738 223.025 392.209L223.025 392.209Z" id="Shape" fill="none" stroke="#E1E4E5" stroke-width="5.225" />
    <path d="M309.972 309.699C289.465 327.618 254.189 320.822 254.189 320.822C254.189 320.822 252.184 284.974 272.708 267.067C293.216 249.148 328.475 255.931 328.475 255.931C328.475 255.931 330.48 291.778 309.972 309.699L309.972 309.699Z" id="Shape" fill="url(#gradient_3)" stroke="none" />
    <path d="M397.196 196.548C401.128 197.602 403.461 201.643 402.408 205.575C401.354 209.507 397.313 211.841 393.381 210.787C389.449 209.734 387.115 205.692 388.169 201.76C389.222 197.828 393.264 195.495 397.196 196.548Z" id="Circle" fill="#E1E4E5" fill-rule="evenodd" stroke="none" />
    <path d="M423.967 289.841C427.899 290.895 430.232 294.936 429.179 298.868C428.125 302.8 424.084 305.134 420.152 304.08C416.22 303.026 413.886 298.985 414.94 295.053C415.993 291.121 420.035 288.787 423.967 289.841Z" id="Circle" fill="#E1E4E5" fill-rule="evenodd" stroke="none" />
    <path d="M570.489 220.806C574.421 221.859 576.755 225.901 575.701 229.833C574.647 233.765 570.606 236.098 566.674 235.045C562.742 233.991 560.408 229.949 561.462 226.017C562.516 222.085 566.557 219.752 570.489 220.806Z" id="Circle" fill="#E1E4E5" fill-rule="evenodd" stroke="none" />
    <path d="M833.015 384.989C835.599 385.681 837.132 388.337 836.44 390.92C835.747 393.504 833.092 395.037 830.508 394.345C827.925 393.652 826.391 390.997 827.084 388.413C827.776 385.83 830.432 384.296 833.015 384.989Z" id="Circle" fill="#E1E4E5" fill-rule="evenodd" stroke="none" />
    <path d="M838.155 500.673C842.087 501.727 844.421 505.768 843.367 509.7C842.314 513.632 838.272 515.966 834.34 514.912C830.408 513.859 828.075 509.817 829.128 505.885C830.182 501.953 834.223 499.62 838.155 500.673Z" id="Circle" fill="#E1E4E5" fill-rule="evenodd" stroke="none" />
    <path d="M896.277 457.42C900.209 458.474 902.542 462.515 901.489 466.447C900.435 470.379 896.394 472.713 892.462 471.659C888.53 470.605 886.196 466.564 887.25 462.632C888.303 458.7 892.345 456.366 896.277 457.42Z" id="Circle" fill="#E1E4E5" fill-rule="evenodd" stroke="none" />
    <path d="M783.968 306.331L783.968 332.606L760.249 360.875L859.882 360.875C889.997 360.875 914.426 336.448 914.426 306.331C914.426 276.216 889.997 251.789 859.882 251.789L838.512 251.789C808.378 251.789 783.968 276.216 783.968 306.331L783.968 306.331Z" id="Shape" fill="#E1E4E5" stroke="none" />
    <path d="M825.999 306.239C826 311.589 821.661 315.931 816.307 315.935C810.951 315.935 806.609 311.594 806.606 306.239C806.608 300.885 810.948 296.545 816.302 296.542C821.657 296.543 825.997 300.884 825.999 306.239L825.999 306.239ZM858.949 306.237C858.947 311.592 854.607 315.932 849.253 315.934C843.899 315.931 839.559 311.591 839.557 306.237C839.558 300.883 843.898 296.543 849.253 296.54C854.607 296.543 858.947 300.883 858.949 306.237L858.949 306.237ZM891.9 306.237C891.9 311.588 887.562 315.93 882.207 315.934C876.851 315.934 872.508 311.593 872.506 306.237C872.509 300.884 876.848 296.544 882.202 296.54C887.557 296.542 891.898 300.882 891.9 306.237L891.9 306.237Z" id="Shape" fill="#FFFFFF" fill-rule="evenodd" stroke="none" />
    <path d="M865.959 595.905L846.939 603.341L848.145 582.956L867.159 575.526L865.959 595.905L865.959 595.905Z" id="Shape" fill="none" stroke="#E1E4E5" stroke-width="4.267" stroke-linecap="round" stroke-linejoin="round" />
    <path d="M447.402 225.021L447.402 173.257C447.402 167.895 451.737 163.552 457.086 163.552L515.199 163.552C520.55 163.552 524.885 167.895 524.885 173.257L524.885 225.021C524.886 228.545 522.978 231.791 519.901 233.505L490.846 249.679C487.921 251.309 484.361 251.309 481.437 249.679L452.38 233.504C449.306 231.787 447.402 228.542 447.402 225.021L447.402 225.021Z" id="Shape" fill="#E1E4E5" fill-rule="evenodd" stroke="none" />
    <g id="Group" transform="translate(470.03812 189.91313)">
      <path d="M0 16.4431L32.2115 16.4431" id="Line" fill="none" fill-rule="evenodd" stroke="#FFFFFF" stroke-width="3.682" stroke-linecap="round" stroke-linejoin="round" />
      <path d="M0 1.35167L32.2115 1.35167" id="Line" fill="none" fill-rule="evenodd" stroke="#FFFFFF" stroke-width="3.682" stroke-linecap="round" stroke-linejoin="round" />
      <path d="M0 31.0976L32.2115 31.0976" id="Line" fill="none" fill-rule="evenodd" stroke="#FFFFFF" stroke-width="3.682" stroke-linecap="round" stroke-linejoin="round" />
    </g>
    <path d="M886.75 406.171C886.302 405.723 886.078 405.182 886.078 404.548C886.078 403.914 886.302 403.373 886.75 402.925L911.361 378.314C911.809 377.866 912.35 377.642 912.984 377.642C913.618 377.642 914.159 377.866 914.607 378.314C915.055 378.762 915.279 379.303 915.279 379.937C915.279 380.571 915.055 381.112 914.607 381.56L889.996 406.171C889.547 406.619 889.006 406.843 888.373 406.843C887.739 406.843 887.198 406.619 886.75 406.171L886.75 406.171Z" id="Rectangle" fill="#E1E4E5" fill-rule="evenodd" stroke="none" />
    <path d="M901.854 406.278C901.406 405.83 901.182 405.289 901.182 404.655C901.182 404.021 901.406 403.48 901.854 403.032L908.952 395.934C909.4 395.486 909.941 395.262 910.575 395.262C911.209 395.262 911.75 395.486 912.198 395.934C912.646 396.383 912.87 396.923 912.87 397.557C912.87 398.191 912.646 398.732 912.198 399.18L905.1 406.278C904.652 406.726 904.111 406.95 903.477 406.95C902.844 406.95 902.303 406.726 901.854 406.278L901.854 406.278Z" id="Rectangle" fill="#E1E4E5" fill-rule="evenodd" stroke="none" />
    <path d="M1028.42 304.228C1028.42 304.228 1007.66 298.656 1000.5 346.251C993.342 393.845 993.291 419.914 993.291 419.914C993.291 419.914 990.663 430.264 982.945 426.64C975.227 423.016 961.943 409.896 952.934 416.055C943.596 422.449 944.046 435.098 951.657 451.374C959.268 467.651 974.628 503.892 976.007 507.186C977.367 510.402 977.086 515.921 971.433 514.289C965.781 512.658 929.521 492.034 920.771 509.816C912.003 527.606 940.662 569.452 943.702 574.08C946.744 578.709 946.486 581.221 944.493 583.286C942.501 585.35 930.959 577.267 920.413 571.815C909.866 566.362 896.67 561.91 892.476 572.596C888.281 583.281 897.616 618.736 949.44 664.082L974.829 683.522L1004.69 671.692C1067.04 642.484 1085.84 610.997 1084.77 599.571C1083.69 588.145 1069.79 588.767 1058.13 591.081C1046.48 593.397 1033.16 597.961 1031.81 595.423C1030.47 592.886 1030.9 590.409 1035.11 586.799C1039.32 583.189 1078.44 550.933 1074.95 531.401C1071.46 511.888 1030.9 521.658 1025.02 521.641C1019.14 521.643 1020.41 516.273 1022.6 513.554C1024.84 510.781 1049.66 480.207 1061.47 466.672C1073.29 453.159 1077.22 441.115 1070.02 432.386C1063.09 423.958 1046.67 432.909 1038.26 434.254C1029.84 435.598 1030.19 424.91 1030.19 424.91C1030.19 424.91 1037.38 399.845 1043.67 352.13C1049.97 304.414 1027.95 304.125 1027.95 304.125" id="Shape" fill="#E1E4E5" stroke="none" />
    <path d="M974.299 676.835C979.049 641.808 986.029 593.473 993.937 540.111C1001.83 486.773 1008.92 438.472 1013.89 403.47C1016.35 386.005 1018.33 371.855 1019.71 362.028C1020.4 357.167 1020.93 353.381 1021.31 350.756C1021.49 349.506 1021.64 348.534 1021.74 347.824C1021.86 347.173 1021.93 346.823 1021.93 346.823C1021.93 346.823 1021.91 347.156 1021.85 347.836C1021.77 348.542 1021.66 349.523 1021.52 350.782C1021.19 353.415 1020.72 357.205 1020.12 362.084C1018.9 371.891 1017.03 386.071 1014.64 403.579C1009.89 438.606 1002.91 486.92 995.016 540.277C987.126 593.636 980.016 641.941 975.072 676.939" id="Shape" fill="#FFFFFF" stroke="none" />
    <path d="M970.786 435.177C970.857 435.137 971.358 435.769 972.26 436.976C973.159 438.162 974.396 439.922 975.892 442.108C978.89 446.499 982.878 452.654 987.149 459.559C991.308 466.351 995.087 472.5 997.995 477.247C999.301 479.34 1000.4 481.114 1001.31 482.588C1002.1 483.845 1002.5 484.566 1002.43 484.606C1002.36 484.646 1001.84 484.019 1000.94 482.832C1000.06 481.639 998.825 479.88 997.342 477.67C994.378 473.249 990.476 467.03 986.229 460.138L975.264 442.544C973.958 440.453 972.843 438.683 971.931 437.209C971.133 435.932 970.733 435.212 970.786 435.177L970.786 435.177ZM1005.38 484.207C1005.22 483.963 1017.55 475.171 1032.96 464.608C1048.36 454.025 1060.99 445.651 1061.16 445.896C1061.33 446.14 1048.99 454.911 1033.59 465.495C1018.17 476.082 1005.55 484.452 1005.38 484.207L1005.38 484.207ZM989.57 565.601C989.548 565.523 990.339 565.229 991.757 564.725C993.41 564.179 995.446 563.508 997.837 562.703C1002.97 560.997 1010.07 558.598 1017.79 555.679C1025.52 552.78 1032.43 549.914 1037.43 547.809C1039.76 546.834 1041.73 545.996 1043.34 545.313C1044.74 544.732 1045.54 544.458 1045.57 544.51C1045.61 544.582 1044.87 544.988 1043.53 545.699C1041.62 546.677 1039.69 547.615 1037.74 548.512C1031.33 551.483 1024.8 554.211 1018.18 556.692C1011.56 559.178 1004.85 561.424 998.072 563.426C995.462 564.187 993.338 564.756 991.884 565.125C990.412 565.499 989.59 565.677 989.57 565.6L989.57 565.601ZM948.525 528.126C948.573 528.072 949.192 528.527 950.297 529.41C951.384 530.299 952.933 531.601 954.838 533.223C959.786 537.471 964.696 541.763 969.567 546.101C974.45 550.434 979.295 554.81 984.101 559.228C985.559 560.566 986.998 561.924 988.417 563.302C989.421 564.272 989.95 564.855 989.901 564.909C989.854 564.963 989.236 564.509 988.129 563.625C987.042 562.737 985.493 561.434 983.59 559.812C978.642 555.566 973.734 551.274 968.865 546.938C963.154 541.86 958.018 537.213 954.352 533.808C952.893 532.469 951.452 531.11 950.031 529.73C949.007 528.763 948.459 528.185 948.525 528.126L948.525 528.126ZM925.433 598.202C925.482 598.148 926.282 598.741 927.683 599.877C929.228 601.159 931.194 602.785 933.52 604.749C938.42 608.899 945.142 614.673 952.52 621.119C959.897 627.567 966.542 633.444 971.313 637.733C973.558 639.779 975.449 641.508 976.932 642.87C978.232 644.095 978.943 644.814 978.896 644.87C978.849 644.924 978.047 644.33 976.647 643.195C975.102 641.912 973.135 640.286 970.809 638.323C964.432 632.91 958.096 627.45 951.8 621.943C945.503 616.451 939.243 610.917 933.02 605.342C930.771 603.292 928.88 601.563 927.397 600.201C926.077 598.982 925.386 598.257 925.433 598.202L925.433 598.202ZM977.921 643.391C977.901 643.314 978.888 642.904 980.671 642.22C982.666 641.478 985.224 640.524 988.294 639.391C994.728 636.984 1003.62 633.648 1013.32 629.684C1021.61 626.303 1029.85 622.786 1038.02 619.135C1040.5 618.043 1042.98 616.944 1045.46 615.836C1047.22 615.075 1048.21 614.665 1048.25 614.738C1048.29 614.81 1047.35 615.33 1045.64 616.221C1043.94 617.113 1041.44 618.363 1038.33 619.837C1030.24 623.694 1022.04 627.314 1013.74 630.691C1005.43 634.074 997.034 637.215 988.549 640.109C985.978 640.986 983.393 641.824 980.796 642.621C978.98 643.171 977.957 643.444 977.921 643.391L977.921 643.391Z" id="Shape" fill="#FFFFFF" fill-rule="evenodd" stroke="none" />
    <path d="M965 346.027L965.177 346.027C966.223 360.242 977.255 360.461 977.255 360.461C977.255 360.461 965.09 360.69 965.09 377.115C965.09 360.69 952.925 360.461 952.925 360.461C952.925 360.461 963.952 360.242 964.999 346.027L965 346.027Z" id="Shape" fill="#E1E4E5" stroke="none" />
    <path d="M620.008 345.333L599.561 420.078L606.856 411.682C604.158 413.119 601.031 414.221 597.566 415.002C594.103 415.785 590.336 416.231 586.395 416.439C582.452 416.646 578.35 416.615 574.137 416.439C569.938 416.263 565.645 415.944 561.288 415.576L561.271 415.576C554.843 415.031 549.187 419.795 548.631 426.222C548.105 432.352 552.461 437.779 558.432 438.752C562.933 439.47 567.497 440.14 572.189 440.684C576.882 441.226 581.686 441.624 586.665 441.737C591.646 441.849 596.801 441.657 602.132 440.89C607.447 440.124 612.969 438.736 618.364 436.406C621.683 434.976 624.236 432.202 625.386 428.777L625.642 427.994L650.173 354.478C652.935 346.212 648.466 337.289 640.198 334.528C631.931 331.766 623.009 336.236 620.247 344.503C620.167 344.775 620.072 345.078 620.008 345.333L620.008 345.333Z" id="Shape" fill="#F8AE9D" stroke="none" />
    <path d="M726.011 436.333C726.011 436.333 726.801 447.403 718.873 450.328L636.393 453.505C636.393 453.505 630.851 448.126 631.942 435.233C631.942 435.202 666.994 399.442 726.011 436.333L726.011 436.333Z" id="Shape" fill="#666AF6" stroke="none" />
    <path d="M665.448 448.01C665.72 450.116 666.646 451.728 667.523 451.6C668.386 451.489 668.88 449.684 668.609 447.595C668.337 445.487 667.411 443.875 666.534 444.003C665.655 444.114 665.177 445.919 665.448 448.01L665.448 448.01Z" id="Shape" fill="#B55E63" stroke="none" />
    <path d="M630.382 421.748L630.382 421.86C630.415 422.169 630.431 422.493 630.447 422.834C630.528 424.131 630.593 425.688 630.642 427.456C630.69 428.884 630.707 430.441 630.723 432.112C630.723 433.36 630.739 434.658 630.739 436.004C654.193 425.867 702.154 433.069 721.461 436.588C721.268 435.615 721.09 434.658 720.911 433.717C720.782 433.02 720.668 432.339 720.538 431.657C719.26 424.245 718.578 417.58 718.353 411.627L718.304 410.038C718.109 401.198 719.065 388.628 721.009 375.685C721.138 374.793 721.284 373.901 721.413 373.025L721.705 371.273C722.411 366.975 723.237 362.697 724.184 358.445C724.507 357.017 724.782 355.573 725.01 354.146C725.268 352.557 725.462 350.967 725.608 349.394C725.965 345.404 725.933 341.511 725.414 337.894C724.491 331.454 721.981 325.908 717.332 322.34C714.707 320.329 711.388 318.934 707.273 318.382C705.928 318.204 704.601 318.026 703.321 317.88C699.287 317.393 695.578 317.052 692.566 316.809C691.578 316.728 690.654 316.663 689.828 316.598C687.723 316.452 686.167 316.355 685.406 316.322C685.222 316.315 685.039 316.304 684.856 316.29L648.847 326.265L645.414 327.206C643.956 327.66 642.58 328.098 641.3 328.52C638.125 329.574 635.42 330.58 633.087 331.568C630.204 332.801 627.905 334.001 626.091 335.266C618.154 340.765 619.286 347.107 619.319 359.596L619.319 360.456C619.319 361.396 619.303 362.336 619.271 363.277C619.239 364.461 619.174 365.629 619.077 366.796C618.915 369.148 620.311 371.443 620.019 373.747C623.794 389.956 624.739 395.362 626.091 405.5C627.261 414.286 627.03 419.283 629.491 421.099C630.043 421.521 630.382 421.748 630.382 421.748L630.382 421.748Z" id="Shape" fill="#0011FF" stroke="none" />
    <path d="M684.074 318.056C684.074 318.056 680.898 330.074 668.897 333.41C653.638 337.639 651.338 332.516 651.338 332.516C651.718 330.341 651.857 328.13 651.753 325.924C651.715 325.044 651.646 324.166 651.547 323.291C651.275 320.832 650.764 318.152 650.046 315.086C649.887 314.369 649.695 313.619 649.504 312.852L649.488 312.756C659.926 308.831 668.114 302.94 673.126 294.226L674.61 293.061L675.616 292.264L675.902 292.869L675.951 294.897C676.158 304.425 677.77 310.06 684.075 318.056L684.074 318.056Z" id="Shape" fill="#F8AE9D" stroke="none" />
    <path d="M612.139 616.331C612.443 616.331 612.746 616.284 613.048 616.172L720.146 577.563C721.509 577.026 722.198 575.503 721.701 574.126C721.204 572.748 719.702 572.015 718.311 572.471L611.213 611.08C609.975 611.527 609.238 612.799 609.467 614.095C609.695 615.391 610.823 616.335 612.139 616.331L612.139 616.331Z" id="Shape" fill="#666AF6" stroke="none" />
    <path d="M723.673 616.332C724.986 616.329 726.107 615.383 726.331 614.089C726.556 612.795 725.819 611.527 724.584 611.081L616.21 571.833C614.818 571.371 613.311 572.1 612.809 573.479C612.308 574.857 612.995 576.384 614.358 576.925L722.732 616.172C723.067 616.284 723.37 616.332 723.673 616.332L723.673 616.332Z" id="Shape" fill="#666AF6" stroke="none" />
    <path d="M602.611 685.331C604.923 685.324 606.878 683.615 607.192 681.324L626.536 536.896L707.473 536.896L726.514 681.324C726.672 682.541 727.308 683.644 728.282 684.39C729.256 685.136 730.486 685.463 731.702 685.3C732.918 685.141 734.021 684.505 734.766 683.531C735.512 682.558 735.839 681.327 735.676 680.112L716.108 531.661C715.805 529.362 713.846 527.642 711.527 527.638L622.482 527.638C620.166 527.635 618.206 529.349 617.901 531.645L598.014 680.096C597.678 682.629 599.455 684.957 601.988 685.3C602.196 685.331 602.403 685.331 602.611 685.331L602.611 685.331Z" id="Shape" fill="#666AF6" stroke="none" />
    <path d="M648.274 532.266L706.1 532.266C724.423 532.266 744.04 522.243 746.848 504.127C750.394 481.251 751.613 458.074 750.487 434.953C749.306 410.613 737.687 387.981 718.55 372.898C718.55 372.898 706.994 423.238 721.518 492.731C715.996 519.147 648.274 532.266 648.274 532.266L648.274 532.266Z" id="Shape" fill="#666AF6" stroke="none" />
    <path d="M514.475 623.45L540.299 623.45C540.299 623.45 546.286 594.785 548.281 578.696C550.291 562.624 551.329 524.509 551.329 524.509C551.329 524.509 571.919 531.197 615.012 528.675C710.49 523.105 674.291 452.957 674.291 452.957C671.066 457.41 651.307 454.329 637.804 456.453C596.354 460.427 560.394 476.708 538.831 486.012C533.629 488.247 529.015 490.624 524.978 493.114C519.774 496.323 516.518 506.043 514.555 518.843C508.65 557.293 514.475 623.45 514.475 623.45L514.475 623.45Z" id="Shape" fill="#31446C" stroke="none" />
    <path d="M515.193 656.538L533.42 656.538L536.932 635.151L538.847 623.451L516.199 623.451L515.847 635.151L515.193 656.538L515.193 656.538Z" id="Shape" fill="#F8AE9D" stroke="none" />
    <path d="M515.193 656.537L533.42 656.537L536.039 640.609L536.932 635.15L515.847 635.15L515.672 640.816L515.193 656.537L515.193 656.537Z" id="Shape" fill="url(#gradient_4)" stroke="none" />
    <path d="M470.2 685.332L539.166 685.332C539.677 684.406 539.965 683.081 540.076 681.501C540.507 675.659 538.655 666.354 537.73 660.48C537.619 659.793 537.523 659.155 537.443 658.581C537.315 657.592 537.235 656.778 537.235 656.187C537.235 651.398 532.989 652.212 532.989 652.212C526.015 659.059 518.114 648.796 513.502 652.165C513.502 652.165 513.31 652.308 512.895 652.627C512.512 652.931 511.921 653.409 511.107 654.096C509.926 655.086 508.282 656.506 506.048 658.517C500.574 663.448 491.269 666.69 483.336 670.009C482.33 670.424 481.388 670.854 480.511 671.269C479.857 671.589 479.233 671.908 478.643 672.227C472.163 675.723 470.104 679.075 469.641 681.501C469.178 683.846 470.2 685.332 470.2 685.332L470.2 685.332Z" id="Shape" fill="#31446C" stroke="none" />
    <path d="M470.2 685.332L539.166 685.332C539.677 684.406 539.965 683.081 540.076 681.501L469.641 681.501C469.178 683.848 470.2 685.332 470.2 685.332L470.2 685.332Z" id="Shape" fill="#31446C" stroke="none" />
    <path d="M688.329 337.071L665.404 421.604L673.577 412.11C670.554 413.738 667.047 414.973 663.169 415.864C659.292 416.74 655.057 417.256 650.652 417.475C646.232 417.71 641.624 417.663 636.909 417.475C632.193 417.272 627.384 416.927 622.498 416.506L622.468 416.506C615.254 415.88 608.911 421.276 608.29 428.548C607.7 435.476 612.586 441.622 619.288 442.717C624.329 443.531 629.463 444.297 634.721 444.907C639.98 445.518 645.378 445.987 650.963 446.111C656.546 446.237 662.331 446.018 668.304 445.142C674.276 444.266 680.465 442.702 686.514 440.075C690.392 438.385 693.139 435.179 694.394 431.456L694.689 430.581L722.175 347.425C725.262 338.071 720.268 327.984 710.992 324.856C701.731 321.743 691.711 326.779 688.609 336.131C688.516 336.429 688.407 336.788 688.329 337.071L688.329 337.071Z" id="Shape" fill="#F8AE9D" stroke="none" />
    <path d="M559.452 623.531L585.277 623.531C585.277 623.531 591.262 594.864 593.257 578.776C595.268 562.703 596.307 524.589 596.307 524.589C596.307 524.589 616.895 531.277 659.989 528.754C755.467 523.184 719.268 453.037 719.268 453.037C716.044 457.489 691.848 463.635 678.345 465.757C636.894 469.731 605.372 476.771 583.809 486.092C578.605 488.326 573.993 490.704 569.955 493.193C564.752 496.402 561.496 506.122 559.532 518.922C553.612 557.372 559.452 623.531 559.452 623.531L559.452 623.531Z" id="Shape" fill="#31446C" stroke="none" />
    <path d="M560.155 656.631L578.398 656.631L581.91 635.244L583.825 623.529L561.177 623.529L560.809 635.244L560.155 656.631L560.155 656.631Z" id="Shape" fill="#F8AE9D" stroke="none" />
    <path d="M560.155 656.632L578.398 656.632L580.999 640.703L581.91 635.245L560.809 635.245L560.633 640.911L560.155 656.632L560.155 656.632Z" id="Shape" fill="url(#gradient_5)" stroke="none" />
    <path d="M515.162 685.424L584.128 685.424C584.639 684.498 584.926 683.174 585.038 681.593C585.469 675.753 583.617 666.447 582.691 660.574C582.58 659.887 582.484 659.249 582.405 658.675C582.276 657.685 582.197 656.87 582.197 656.279C582.197 651.492 577.951 652.306 577.951 652.306C570.976 659.153 563.076 648.89 558.463 652.258C558.463 652.258 558.272 652.401 557.857 652.721C557.473 653.025 556.883 653.503 556.069 654.19C554.888 655.179 553.244 656.6 551.01 658.61C545.535 663.542 536.229 666.782 528.297 670.102C527.292 670.517 526.35 670.948 525.473 671.363C524.818 671.682 524.195 672.002 523.605 672.321C517.125 675.816 515.066 679.167 514.602 681.594C514.156 683.924 515.162 685.424 515.162 685.424L515.162 685.424Z" id="Shape" fill="#31446C" stroke="none" />
    <path d="M515.161 685.424L584.128 685.424C584.639 684.498 584.926 683.174 585.038 681.594L514.603 681.594C514.157 683.924 515.161 685.424 515.161 685.424L515.161 685.424Z" id="Shape" fill="#31446C" stroke="none" />
    <path d="M418.303 452.132L418.303 459.294C418.303 463.424 420.837 466.756 423.987 466.756L818.999 466.756C822.134 466.756 824.684 463.424 824.684 459.294L824.684 452.132C824.684 448.021 822.15 444.669 818.999 444.669L423.987 444.669C420.854 444.69 418.303 448.021 418.303 452.132L418.303 452.132Z" id="Shape" fill="#E1E4E5" stroke="none" />
    <path d="M438.501 476.941L794.061 476.941C795.656 476.941 796.95 475.888 796.95 474.58L796.95 462.146L435.629 462.146L435.629 474.58C435.629 475.888 436.921 476.941 438.501 476.941L438.501 476.941ZM813.278 687.23L762.905 478.415L780.605 478.415L830.961 687.23L813.278 687.23L813.278 687.23ZM468.236 687.23L518.609 478.415L500.924 478.415L450.552 687.23L468.236 687.23L468.236 687.23Z" id="Shape" fill="#E1E4E5" fill-rule="evenodd" stroke="none" />
    <path d="M466.098 335.295L484.613 413.598L485.108 415.657L486.353 420.924C486.89 423.205 488.925 424.818 491.269 424.818L616.002 424.818C619.258 424.818 621.684 421.77 620.934 418.594L600.679 332.964C600.143 330.683 598.107 329.071 595.763 329.07L471.03 329.07C467.758 329.085 465.348 332.134 466.098 335.295L466.098 335.295Z" id="Shape" fill="#0011FF" stroke="none" />
    <path d="M526.701 380.303C527.292 385.699 532.143 390.055 537.539 390.055C542.933 390.055 546.811 385.683 546.221 380.303C545.63 374.908 540.779 370.552 535.384 370.552C529.988 370.552 526.111 374.908 526.701 380.303L526.701 380.303Z" id="Shape" fill="#FFFFFF" stroke="none" />
    <path d="M590.801 329.085L612.365 424.833L616.003 424.833C619.259 424.833 621.669 421.785 620.919 418.608L600.665 332.979C600.128 330.697 598.092 329.085 595.749 329.085L590.801 329.085L590.801 329.085ZM554.759 424.056L558.18 443.197L546.878 443.197L543.456 424.056L554.759 424.056L554.759 424.056Z" id="Shape" fill="#31446C" fill-rule="evenodd" stroke="none" />
    <path d="M573.893 441.471L571.339 437.88C570.421 436.598 568.941 435.837 567.365 435.837L533.097 435.837C531.284 435.832 529.62 436.843 528.788 438.454L527.064 441.759C526.25 443.307 527.384 445.142 529.124 445.142L571.994 445.142C573.877 445.142 574.979 443.004 573.893 441.471L573.893 441.471Z" id="Shape" fill="#31446C" stroke="none" />
    <path d="M644.076 315.623C644.076 315.623 678.617 312.259 676.189 290.779C673.763 269.3 676.582 254.399 654.428 255.642C632.275 256.882 628.916 265.56 627.986 272.925C627.054 280.292 635.032 315.943 644.076 315.623L644.076 315.623Z" id="Shape" fill="#F8AE9D" stroke="none" />
    <path d="M615.008 254.039C615.008 254.039 618.57 273.974 625.357 274.701C632.142 275.427 629.71 267.045 629.71 267.045L627.88 257.59L615.008 254.039L615.008 254.039Z" id="Shape" fill="#002C54" stroke="none" />
    <path d="M673.713 247.643C672.804 240.093 664.87 237.971 664.87 237.971C656.909 235.129 641.201 238.175 625.189 243.357C621.418 244.572 616.397 242.684 613.9 244.794C610.88 247.344 615.061 257.299 615.061 257.299C623.175 275.809 645.797 267.405 652.562 264.384C654.691 269.143 655.122 275.996 659.58 279.149C662.132 280.939 666.22 280.612 670.336 279.52C670.931 280.44 672.948 281.128 673.461 282.427C675.2 286.774 675.666 293.78 676.135 299.165L678.018 298.01C678.131 296.515 693.942 246.378 673.713 247.643L673.713 247.643Z" id="Shape" fill="#002C54" stroke="none" />
    <path d="M290.608 287.708L290.608 278.443C290.608 270.978 293.248 264.606 298.526 259.328C303.805 254.049 310.177 251.41 317.642 251.41L359.588 251.41C367.053 251.41 373.425 254.049 378.703 259.328C383.982 264.606 386.621 270.978 386.621 278.443L386.621 296.972C386.621 304.437 383.982 310.809 378.703 316.087C373.425 321.366 367.053 324.005 359.588 324.005L317.642 324.005C310.177 324.005 303.805 321.366 298.526 316.087C293.248 310.809 290.608 304.437 290.608 296.972L290.608 287.708Z" id="Rectangle" fill="#0011FF" fill-rule="evenodd" stroke="none" />
    <path d="M331.049 313.226L331.534 312.741C333.382 310.894 335.612 309.97 338.225 309.97C340.838 309.97 343.068 310.894 344.915 312.741L345.885 313.711C347.733 315.559 348.657 317.789 348.657 320.402C348.657 323.014 347.733 325.245 345.885 327.092L344.915 328.062C343.068 329.91 340.838 330.833 338.225 330.833C335.612 330.833 333.382 329.91 331.534 328.062L330.564 327.092C328.717 325.245 327.793 323.014 327.793 320.402C327.793 317.789 328.717 315.559 330.564 313.711L331.049 313.226Z" id="Rectangle" fill="#0011FF" fill-rule="evenodd" stroke="none" />
    <path d="M348.392 267.021C356.791 267.021 362.423 274.872 362.423 282.183C362.423 297.023 339.041 309.173 338.614 309.173C338.188 309.173 314.807 297.023 314.807 282.183C314.807 274.872 320.438 267.021 328.838 267.021C333.639 267.021 336.792 269.406 338.614 271.529C340.438 269.406 343.591 267.021 348.392 267.021L348.392 267.021Z" id="Shape" fill="#FFFFFF" fill-rule="evenodd" stroke="none" />
  </g>
</svg>