<?xml version="1.0" encoding="utf-8"?>
<svg width="1209px" height="806px" viewBox="0 0 1209 806" version="1.1" xmlns:xlink="http://www.w3.org/1999/xlink" xmlns="http://www.w3.org/2000/svg">
  <defs>
    <linearGradient gradientUnits="userSpaceOnUse" x1="459.40244" y1="53.530468" x2="459.36215" y2="-37.323196" id="gradient_1">
      <stop offset="0%" stop-color="#FFFFFF" />
      <stop offset="100%" stop-color="#EEEEEE" />
    </linearGradient>
    <linearGradient gradientUnits="userSpaceOnUse" x1="-18.185549" y1="89.80762" x2="95.54103" y2="-69.92562" id="gradient_2">
      <stop offset="0%" stop-color="#FFFFFF" />
      <stop offset="100%" stop-color="#EEEEEE" />
    </linearGradient>
    <linearGradient gradientUnits="userSpaceOnUse" x1="-179.9623" y1="-130.28183" x2="-180.99802" y2="-219.2266" id="gradient_3">
      <stop offset="0%" stop-color="#FFFFFF" />
      <stop offset="100%" stop-color="#EEEEEE" />
    </linearGradient>
  </defs>
  <g id="19" transform="translate(-0.100097656 419.02344)">
    <path d="M0 0L1209 0L1209 806L0 806L0 0Z" id="Shape" fill="#FFFFFF" fill-opacity="0" stroke="none" />
    <path d="M604.5 719.713C847.843 719.713 1045.11 712.036 1045.11 702.564C1045.11 693.092 847.843 685.414 604.5 685.414C361.156 685.414 163.887 693.092 163.887 702.564C163.887 712.036 361.156 719.713 604.5 719.713L604.5 719.713Z" id="Shape" fill="url(#gradient_1)" stroke="none" />
    <path d="M272.697 212.247L272.697 188.067C272.697 181.39 275.058 175.691 279.779 170.969C284.5 166.248 290.2 163.887 296.877 163.887L835.553 163.887C842.23 163.887 847.93 166.248 852.651 170.969C857.373 175.691 859.733 181.39 859.733 188.067L859.733 624.65C859.733 631.327 857.373 637.027 852.651 641.748C847.93 646.47 842.23 648.83 835.553 648.83L296.877 648.83C290.2 648.83 284.5 646.47 279.779 641.748C275.058 637.027 272.697 631.327 272.697 624.65L272.697 212.247Z" id="Rectangle" fill="#FFFFFF" fill-rule="evenodd" stroke="#E1E4E5" stroke-width="4" />
    <path d="M338.52 319.313L338.52 325.631C338.52 329.12 341.313 331.95 344.754 331.95L419.577 331.95C423.018 331.95 425.811 329.12 425.811 325.631L425.811 319.213C425.811 300.093 404.251 287.671 382.166 287.671C360.081 287.671 338.52 300.1 338.52 319.213M366.511 232.165C357.865 240.811 357.865 254.828 366.511 263.474C375.157 272.121 389.174 272.121 397.821 263.474C406.467 254.828 406.467 240.811 397.821 232.165C389.174 223.519 375.157 223.519 366.511 232.165L366.511 232.165Z" id="Shape" fill="#0011FF" fill-rule="evenodd" stroke="none" />
    <path d="M323.743 355.984C323.743 354.129 324.399 352.546 325.71 351.234C327.022 349.923 328.605 349.267 330.46 349.267L431.21 349.267C433.065 349.267 434.648 349.923 435.959 351.234C437.271 352.546 437.927 354.129 437.927 355.984C437.927 357.838 437.271 359.422 435.959 360.733C434.648 362.045 433.065 362.7 431.21 362.7L330.46 362.7C328.605 362.7 327.022 362.045 325.71 360.733C324.399 359.422 323.743 357.838 323.743 355.984L323.743 355.984Z" id="Rectangle" fill="#E1E4E5" fill-rule="evenodd" stroke="none" />
    <path d="M323.743 382.85C323.743 380.995 324.399 379.412 325.71 378.101C327.022 376.789 328.605 376.134 330.46 376.134L431.21 376.134C433.065 376.134 434.648 376.789 435.959 378.101C437.271 379.412 437.927 380.995 437.927 382.85C437.927 384.705 437.271 386.288 435.959 387.6C434.648 388.911 433.065 389.567 431.21 389.567L330.46 389.567C328.605 389.567 327.022 388.911 325.71 387.6C324.399 386.288 323.743 384.705 323.743 382.85L323.743 382.85Z" id="Rectangle" fill="#E1E4E5" fill-rule="evenodd" stroke="none" />
    <path d="M338.52 523.499L338.52 529.817C338.52 533.305 341.313 536.136 344.754 536.136L419.577 536.136C423.018 536.136 425.811 533.305 425.811 529.817L425.811 523.398C425.811 504.278 404.251 491.857 382.166 491.857C360.081 491.857 338.52 504.285 338.52 523.398M366.511 436.35C357.865 444.996 357.865 459.014 366.511 467.66C375.157 476.307 389.174 476.307 397.821 467.66C406.467 459.014 406.467 444.996 397.821 436.35C389.174 427.705 375.157 427.705 366.511 436.35L366.511 436.35Z" id="Shape" fill="#0011FF" fill-rule="evenodd" stroke="none" />
    <path d="M323.743 560.17C323.743 558.315 324.399 556.732 325.71 555.421C327.022 554.109 328.605 553.453 330.46 553.453L431.21 553.453C433.065 553.453 434.648 554.109 435.959 555.421C437.271 556.732 437.927 558.315 437.927 560.17C437.927 562.025 437.271 563.608 435.959 564.919C434.648 566.231 433.065 566.887 431.21 566.887L330.46 566.887C328.605 566.887 327.022 566.231 325.71 564.919C324.399 563.608 323.743 562.025 323.743 560.17L323.743 560.17Z" id="Rectangle" fill="#E1E4E5" fill-rule="evenodd" stroke="none" />
    <path d="M323.743 587.036C323.743 585.182 324.399 583.599 325.71 582.287C327.022 580.975 328.605 580.32 330.46 580.32L431.21 580.32C433.065 580.32 434.648 580.975 435.959 582.287C437.271 583.599 437.927 585.182 437.927 587.036C437.927 588.891 437.271 590.474 435.959 591.786C434.648 593.097 433.065 593.753 431.21 593.753L330.46 593.753C328.605 593.753 327.022 593.097 325.71 591.786C324.399 590.474 323.743 588.891 323.743 587.036L323.743 587.036Z" id="Rectangle" fill="#E1E4E5" fill-rule="evenodd" stroke="none" />
    <path d="M506.437 319.313L506.437 325.631C506.437 329.12 509.229 331.95 512.671 331.95L587.493 331.95C590.935 331.95 593.728 329.12 593.728 325.631L593.728 319.213C593.728 300.093 572.167 287.671 550.083 287.671C527.997 287.671 506.437 300.1 506.437 319.213M534.427 232.165C525.782 240.811 525.782 254.828 534.427 263.474C543.073 272.121 557.091 272.121 565.738 263.474C574.384 254.828 574.384 240.811 565.738 232.165C557.091 223.519 543.073 223.519 534.427 232.165L534.427 232.165Z" id="Shape" fill="#0011FF" fill-rule="evenodd" stroke="none" />
    <path d="M491.66 355.984C491.66 354.129 492.316 352.546 493.627 351.234C494.939 349.923 496.522 349.267 498.377 349.267L599.127 349.267C600.981 349.267 602.564 349.923 603.876 351.234C605.187 352.546 605.843 354.129 605.843 355.984C605.843 357.838 605.187 359.422 603.876 360.733C602.564 362.045 600.981 362.7 599.127 362.7L498.377 362.7C496.522 362.7 494.939 362.045 493.627 360.733C492.316 359.422 491.66 357.838 491.66 355.984L491.66 355.984Z" id="Rectangle" fill="#E1E4E5" fill-rule="evenodd" stroke="none" />
    <path d="M491.66 382.85C491.66 380.995 492.316 379.412 493.627 378.101C494.939 376.789 496.522 376.134 498.377 376.134L599.127 376.134C600.981 376.134 602.564 376.789 603.876 378.101C605.187 379.412 605.843 380.995 605.843 382.85C605.843 384.705 605.187 386.288 603.876 387.6C602.564 388.911 600.981 389.567 599.127 389.567L498.377 389.567C496.522 389.567 494.939 388.911 493.627 387.6C492.316 386.288 491.66 384.705 491.66 382.85L491.66 382.85Z" id="Rectangle" fill="#E1E4E5" fill-rule="evenodd" stroke="none" />
    <path d="M506.437 523.499L506.437 529.817C506.437 533.305 509.229 536.136 512.671 536.136L587.493 536.136C590.935 536.136 593.728 533.305 593.728 529.817L593.728 523.398C593.728 504.278 572.167 491.857 550.083 491.857C527.997 491.857 506.437 504.285 506.437 523.398M534.427 436.35C525.782 444.996 525.782 459.014 534.427 467.66C543.073 476.307 557.091 476.307 565.738 467.66C574.384 459.014 574.384 444.996 565.738 436.35C557.091 427.705 543.073 427.705 534.427 436.35L534.427 436.35Z" id="Shape" fill="#0011FF" fill-rule="evenodd" stroke="none" />
    <path d="M491.66 560.17C491.66 558.315 492.316 556.732 493.627 555.421C494.939 554.109 496.522 553.453 498.377 553.453L599.127 553.453C600.981 553.453 602.564 554.109 603.876 555.421C605.187 556.732 605.843 558.315 605.843 560.17C605.843 562.025 605.187 563.608 603.876 564.919C602.564 566.231 600.981 566.887 599.127 566.887L498.377 566.887C496.522 566.887 494.939 566.231 493.627 564.919C492.316 563.608 491.66 562.025 491.66 560.17L491.66 560.17Z" id="Rectangle" fill="#E1E4E5" fill-rule="evenodd" stroke="none" />
    <path d="M491.66 587.036C491.66 585.182 492.316 583.599 493.627 582.287C494.939 580.975 496.522 580.32 498.377 580.32L599.127 580.32C600.981 580.32 602.564 580.975 603.876 582.287C605.187 583.599 605.843 585.182 605.843 587.036C605.843 588.891 605.187 590.474 603.876 591.786C602.564 593.097 600.981 593.753 599.127 593.753L498.377 593.753C496.522 593.753 494.939 593.097 493.627 591.786C492.316 590.474 491.66 588.891 491.66 587.036L491.66 587.036Z" id="Rectangle" fill="#E1E4E5" fill-rule="evenodd" stroke="none" />
    <path d="M674.354 319.313L674.354 325.631C674.354 329.118 677.146 331.95 680.588 331.95L755.41 331.95C758.852 331.95 761.645 329.118 761.645 325.631L761.645 319.213C761.645 300.093 740.084 287.671 718 287.671C695.914 287.671 674.354 300.1 674.354 319.213M674.354 523.5L674.354 529.817C674.354 533.305 677.146 536.136 680.588 536.136L755.41 536.136C758.852 536.136 761.645 533.305 761.645 529.817L761.645 523.399C761.645 504.279 740.084 491.857 718 491.857C695.914 491.857 674.354 504.286 674.354 523.399M702.345 232.165C693.699 240.811 693.699 254.828 702.345 263.475C710.991 272.121 725.008 272.121 733.655 263.475C742.301 254.828 742.301 240.811 733.655 232.165C725.008 223.519 710.991 223.519 702.345 232.165L702.345 232.165ZM702.345 436.352C693.699 444.998 693.699 459.015 702.345 467.662C710.991 476.308 725.008 476.308 733.655 467.662C742.301 459.015 742.301 444.998 733.655 436.352C725.008 427.706 710.991 427.706 702.345 436.352L702.345 436.352Z" id="Shape" fill="#0011FF" fill-rule="evenodd" stroke="none" />
    <path d="M659.577 355.984C659.577 354.129 660.232 352.546 661.544 351.234C662.855 349.923 664.438 349.267 666.293 349.267L767.043 349.267C768.898 349.267 770.481 349.923 771.793 351.234C773.104 352.546 773.76 354.129 773.76 355.984C773.76 357.838 773.104 359.422 771.793 360.733C770.481 362.045 768.898 362.7 767.043 362.7L666.293 362.7C664.438 362.7 662.855 362.045 661.544 360.733C660.232 359.422 659.577 357.838 659.577 355.984L659.577 355.984Z" id="Rectangle" fill="#E1E4E5" fill-rule="evenodd" stroke="none" />
    <path d="M659.577 560.17C659.577 558.315 660.232 556.732 661.544 555.421C662.855 554.109 664.438 553.453 666.293 553.453L767.043 553.453C768.898 553.453 770.481 554.109 771.793 555.421C773.104 556.732 773.76 558.315 773.76 560.17C773.76 562.025 773.104 563.608 771.793 564.919C770.481 566.231 768.898 566.887 767.043 566.887L666.293 566.887C664.438 566.887 662.855 566.231 661.544 564.919C660.232 563.608 659.577 562.025 659.577 560.17L659.577 560.17Z" id="Rectangle" fill="#E1E4E5" fill-rule="evenodd" stroke="none" />
    <path d="M659.577 382.85C659.577 380.995 660.232 379.412 661.544 378.101C662.855 376.789 664.438 376.134 666.293 376.134L736.147 376.134C738.001 376.134 739.584 376.789 740.896 378.101C742.207 379.412 742.863 380.995 742.863 382.85C742.863 384.705 742.207 386.288 740.896 387.6C739.584 388.911 738.001 389.567 736.147 389.567L666.293 389.567C664.438 389.567 662.855 388.911 661.544 387.6C660.232 386.288 659.577 384.705 659.577 382.85L659.577 382.85Z" id="Rectangle" fill="#E1E4E5" fill-rule="evenodd" stroke="none" />
    <path d="M659.577 587.036C659.577 585.182 660.232 583.599 661.544 582.287C662.855 580.975 664.438 580.32 666.293 580.32L767.043 580.32C768.898 580.32 770.481 580.975 771.793 582.287C773.104 583.599 773.76 585.182 773.76 587.036C773.76 588.891 773.104 590.474 771.793 591.786C770.481 593.097 768.898 593.753 767.043 593.753L666.293 593.753C664.438 593.753 662.855 593.097 661.544 591.786C660.232 590.474 659.577 588.891 659.577 587.036L659.577 587.036Z" id="Rectangle" fill="#E1E4E5" fill-rule="evenodd" stroke="none" />
    <path d="M917.977 501.458C917.977 501.458 896.136 515.751 877.67 514.286C859.204 512.822 847.685 494.475 841.501 487.815C835.323 481.155 819.749 465.06 824.421 458.311C829.093 451.562 833.246 458.831 834.803 463.503C836.362 468.175 834.83 458.862 837.156 459.366C839.477 459.869 838.553 465.522 840.831 467.371C843.111 469.214 876.855 486.865 884.122 485.827C891.391 484.788 894.574 482.795 896.62 480.676C898.659 478.554 920.681 496.843 917.977 501.458L917.977 501.458Z" id="Shape" fill="#F8AE9D" stroke="none" />
    <path d="M846.563 675.301L846.505 685.088L824.145 697.136L824.145 702.406L868.865 702.406L868.865 693.373L871.206 675.301L846.563 675.301L846.563 675.301Z" id="Shape" fill="#E1E4E5" stroke="none" />
    <path d="M958.731 555.924C958.731 555.924 896.999 534.826 868.487 538.256C840.406 543.967 840.193 577.836 840.297 597.762C840.402 617.686 843.708 675.313 843.708 675.313L875.096 675.313C875.096 675.313 886.325 623.486 890.073 599.038C890.073 599.038 891.615 588.096 899.875 592.248C933.692 609.256 954.936 601.593 958.794 585.499C962.65 569.406 958.731 555.924 958.731 555.924L958.731 555.924Z" id="Shape" fill="#31446C" stroke="none" />
    <path d="M933.208 465.606C933.208 465.606 913.009 475.548 896.582 478.035C879.451 480.63 903.331 502.954 922.021 502.954C940.711 502.954 933.208 465.606 933.208 465.606L933.208 465.606Z" id="Shape" fill="#0011FF" stroke="none" />
    <path d="M1016.57 687.324L1028.55 687.382L1039.73 702.437L1045.32 702.437L1045.32 660.272L1035.74 660.272L1016.57 664.093L1016.57 687.324L1016.57 687.324Z" id="Shape" fill="#E1E4E5" stroke="none" />
    <path d="M1016.61 688.291L1016.61 662.333C991.276 659.738 981.371 659.432 954.769 659.307C935.664 659.218 945.575 654.026 945.575 654.026C966.496 639.49 987.974 604.188 987.974 604.188C1000.64 584.46 993.483 553.831 993.483 553.831C993.483 553.831 970.355 560.58 950.534 559.541C950.534 559.541 929.061 586.019 891.615 644.163C876.653 667.395 878.366 692.879 906.468 694.219C906.468 694.219 974.206 695.039 1016.61 688.291L1016.61 688.291Z" id="Shape" fill="#31446C" stroke="none" />
    <path d="M940.399 462.814C940.399 462.814 922.54 466.096 920.354 489.218C918.724 506.475 920.069 529.878 920.069 537.405C920.069 544.933 916.233 544.3 921.501 546.559C926.771 548.817 954.727 571.477 993.104 553.971C993.104 553.971 999.093 519.282 997.297 498.278C996.166 485.065 992.625 463.494 969.762 461.641L940.399 462.814L940.399 462.814Z" id="Shape" fill="#0011FF" stroke="none" />
    <path d="M945.756 426.816L935.939 426.587C935.939 426.587 927.831 462.097 947.911 458.058L947.532 461.806C947.532 461.806 941.39 462.704 939.065 463.224C939.065 463.224 946.031 469.219 954.421 468.55C962.81 467.88 968.661 462.414 968.661 462.414L964.539 461.998L963.013 447.088C963.013 447.088 967.81 444.545 968.111 441.549C968.412 438.554 967.737 437.728 965.568 436.752C963.397 435.776 960.022 439.223 960.022 439.223C960.022 439.223 956.954 432.106 956.659 427.532L945.756 426.816L945.756 426.816Z" id="Shape" fill="#F8AE9D" stroke="none" />
    <path d="M851.417 445.848L1000.3 568.295C1005.26 572.366 1006.02 579.667 1002.01 584.675C997.972 589.721 990.61 590.546 985.554 586.518L834.285 465.576L851.417 445.848L851.417 445.848Z" id="Shape" fill="#31446C" stroke="none" />
    <path d="M796.387 334.49C837.821 334.49 871.404 368.073 871.404 409.507C871.404 450.941 837.821 484.524 796.387 484.524C754.953 484.524 721.37 450.941 721.37 409.507C721.37 368.073 754.953 334.49 796.387 334.49L796.387 334.49ZM796.387 462.543C825.677 462.543 849.423 438.797 849.423 409.507C849.423 380.217 825.677 356.471 796.387 356.471C767.097 356.471 743.351 380.217 743.351 409.507C743.351 438.797 767.097 462.543 796.387 462.543L796.387 462.543Z" id="Shape" fill="#E1E4E5" fill-rule="evenodd" stroke="none" />
    <path d="M976.641 544.548C976.641 544.548 954.801 558.84 936.335 557.376C917.869 555.913 906.349 537.565 900.165 530.905C893.987 524.244 878.413 508.15 883.085 501.402C887.758 494.653 891.911 501.92 893.469 506.594C895.026 511.266 893.494 501.952 895.82 502.455C898.141 502.958 897.217 508.613 899.496 510.461C901.775 512.304 935.519 529.954 942.788 528.917C950.055 527.879 953.238 525.885 955.284 523.767C957.324 521.643 979.347 539.932 976.641 544.548L976.641 544.548Z" id="Shape" fill="#F8AE9D" stroke="none" />
    <path d="M995.721 487.182C995.721 487.182 996.779 520.604 988.992 534.622C981.205 548.638 980.648 549.095 973.397 541.599C966.15 534.102 953.17 526.523 954.988 520.448C956.804 514.375 960.537 503.893 961.996 494.647C963.553 484.783 967.187 464.536 974.974 461.941C974.974 461.941 993.622 468.819 995.721 487.182L995.721 487.182Z" id="Shape" fill="#0011FF" stroke="none" />
    <path d="M967.516 446.875C965.912 449.436 962.069 449.424 962.744 446.479C963.511 443.132 963.99 438.695 961.135 439.218C958.282 439.744 957.9 441.936 956.906 440.525C955.911 439.114 956.482 433.678 948.293 432.401C940.102 431.128 936.447 433.621 932.807 431.525C930.625 430.27 929.902 427.69 929.673 425.82C929.608 425.289 930.062 424.607 930.363 425.048C930.649 425.465 931.474 425.53 931.289 425.061C930.137 422.158 928.625 415.937 934.632 412.078C942.676 406.911 949.785 411.64 954.035 412.362C963.4 413.956 969.426 415.182 971.831 421.693C973.823 427.095 972.008 439.707 967.516 446.875L967.516 446.875Z" id="Shape" fill="#31446C" stroke="none" />
    <path d="M234.229 508.669C218.905 522.754 191.822 518.24 191.822 518.24C191.822 518.24 189.602 490.891 204.937 476.814C220.261 462.729 247.33 467.234 247.33 467.234C247.33 467.234 249.552 494.583 234.229 508.669L234.229 508.669Z" id="Shape" fill="url(#gradient_2)" stroke="none" />
    <path d="M214.933 416.433C214.933 421.626 219.143 425.836 224.337 425.836C229.53 425.836 233.74 421.626 233.74 416.433C233.74 411.24 229.53 407.03 224.337 407.03C219.143 407.03 214.933 411.24 214.933 416.433Z" id="Circle" fill="#E1E4E5" fill-rule="evenodd" stroke="none" />
    <path d="M940.333 259.264C940.333 253.328 945.145 248.517 951.08 248.517C957.015 248.517 961.827 253.328 961.827 259.264C961.827 265.199 957.015 270.01 951.08 270.01C945.145 270.01 940.333 265.199 940.333 259.264Z" id="Circle" fill="#31446C" fill-rule="evenodd" stroke="none" />
    <path d="M902.72 331.803C902.72 324.384 908.735 318.37 916.154 318.37C923.573 318.37 929.587 324.384 929.587 331.803C929.587 339.222 923.573 345.237 916.154 345.237C908.735 345.237 902.72 339.222 902.72 331.803Z" id="Circle" fill="#E1E4E5" fill-rule="evenodd" stroke="none" />
    <path d="M891.575 226.781C893.847 227.39 895.196 229.725 894.587 231.998C893.978 234.27 891.642 235.619 889.37 235.01C887.098 234.401 885.749 232.065 886.358 229.793C886.967 227.52 889.302 226.172 891.575 226.781Z" id="Circle" fill="#E1E4E5" fill-rule="evenodd" stroke="none" />
    <path d="M921.527 198.814C921.527 195.104 924.534 192.097 928.243 192.097C931.953 192.097 934.96 195.104 934.96 198.814C934.96 202.523 931.953 205.53 928.243 205.53C924.534 205.53 921.527 202.523 921.527 198.814Z" id="Circle" fill="#E1E4E5" fill-rule="evenodd" stroke="none" />
    <path d="M879.317 122.243L879.112 122.243C877.898 138.828 865.107 139.083 865.107 139.083C865.107 139.083 879.212 139.349 879.212 158.513C879.212 139.349 893.317 139.083 893.317 139.083C893.317 139.083 880.531 138.828 879.317 122.243L879.317 122.243Z" id="Shape" fill="#E1E4E5" stroke="none" />
    <path d="M197.47 199.485C197.47 208.758 204.988 216.276 214.262 216.276C223.535 216.276 231.053 208.758 231.053 199.485C231.053 190.211 223.535 182.693 214.262 182.693C204.988 182.693 197.47 190.211 197.47 199.485Z" id="Circle" fill="url(#gradient_3)" fill-rule="evenodd" stroke="none" />
    <path d="M317.027 126.945C317.027 122.123 313.117 118.213 308.295 118.213C303.473 118.213 299.563 122.123 299.563 126.945C299.563 131.767 303.473 135.677 308.295 135.677C313.117 135.677 317.027 131.767 317.027 126.945Z" id="Circle" fill="#E1E4E5" fill-rule="evenodd" stroke="none" />
  </g>
</svg>