<?xml version="1.0" encoding="utf-8"?>
<svg width="100px" height="100px" viewBox="0 0 100 100" version="1.1" xmlns:xlink="http://www.w3.org/1999/xlink" xmlns="http://www.w3.org/2000/svg">
  <defs>
    <path d="M0 0L100 0L100 100L0 100L0 0Z" id="path_1" />
    <clipPath id="mask_1">
      <use xlink:href="#path_1" />
    </clipPath>
  </defs>
  <g id="lock_FILL0_wght400_GRAD0_opsz48" transform="translate(64 1660.5117)">
    <path d="M0 0L100 0L100 100L0 100L0 0Z" id="Background" fill="#FFFFFF" fill-opacity="0" fill-rule="evenodd" stroke="none" />
    <g clip-path="url(#mask_1)">
      <path d="M22.9167 91.6667C21.1806 91.6667 19.7049 91.059 18.4896 89.8438C17.2743 88.6285 16.6667 87.1528 16.6667 85.4167L16.6667 40.2083C16.6667 38.4722 17.2743 36.9965 18.4896 35.7813C19.7049 34.566 21.1806 33.9583 22.9167 33.9583L30.2083 33.9583L30.2083 23.9583C30.2083 18.4722 32.1354 13.8021 35.9896 9.94791C39.8438 6.09375 44.5139 4.16667 50 4.16667C55.4861 4.16667 60.1563 6.09375 64.0104 9.94792C67.8646 13.8021 69.7917 18.4722 69.7917 23.9583L69.7917 33.9583L77.0833 33.9583C78.8194 33.9583 80.2951 34.566 81.5104 35.7813C82.7257 36.9965 83.3333 38.4722 83.3333 40.2083L83.3333 85.4167C83.3333 87.1528 82.7257 88.6285 81.5104 89.8438C80.2951 91.059 78.8194 91.6667 77.0833 91.6667L22.9167 91.6667ZM22.9167 85.4167L77.0833 85.4167L77.0833 40.2083L22.9167 40.2083L22.9167 85.4167L22.9167 85.4167ZM50 70.8333C52.2222 70.8333 54.1146 70.0694 55.6771 68.5417C57.2396 67.0139 58.0208 65.1736 58.0208 63.0208C58.0208 60.9375 57.2396 59.0451 55.6771 57.3438C54.1146 55.6424 52.2222 54.7917 50 54.7917C47.7778 54.7917 45.8854 55.6424 44.3229 57.3437C42.7604 59.0451 41.9792 60.9375 41.9792 63.0208C41.9792 65.1736 42.7604 67.0139 44.3229 68.5417C45.8854 70.0694 47.7778 70.8333 50 70.8333L50 70.8333ZM36.4583 33.9583L63.5417 33.9583L63.5417 23.9583C63.5417 20.2083 62.2222 17.0139 59.5833 14.375C56.9444 11.7361 53.75 10.4167 50 10.4167C46.25 10.4167 43.0556 11.7361 40.4167 14.375C37.7778 17.0139 36.4583 20.2083 36.4583 23.9583L36.4583 33.9583ZM22.9167 85.4167L22.9167 40.2083L22.9167 85.4167L22.9167 85.4167Z" id="Shape" fill="#9B9B9B" fill-rule="evenodd" stroke="none" />
    </g>
  </g>
</svg>