<?xml version="1.0" encoding="utf-8"?>
<svg width="1121.9999px" height="748px" viewBox="0 0 1121.9999 748" version="1.1" xmlns:xlink="http://www.w3.org/1999/xlink" xmlns="http://www.w3.org/2000/svg">
  <defs>
    <linearGradient gradientUnits="userSpaceOnUse" x1="293.21103" y1="598.59827" x2="300.6162" y2="-417.32663" id="gradient_1">
      <stop offset="0%" stop-color="#DCDCDC" />
      <stop offset="100%" stop-color="#EEEEEE" />
    </linearGradient>
  </defs>
  <g id="13" transform="translate(46.000122 0.01171875)">
    <path d="M0 0L1122 0L1122 748L0 748L0 0Z" id="Shape" fill="#FFFFFF" fill-opacity="0" stroke="none" />
    <path d="M764.022 174.938C810.551 174.938 848.615 212.711 848.615 258.885C848.615 305.059 810.551 342.832 764.022 342.832C754.688 342.832 747.044 350.419 747.044 359.682C747.044 368.944 754.688 376.53 764.022 376.53L808.286 376.53C830.984 376.53 849.558 394.963 849.558 417.488C849.558 440.013 830.984 458.445 808.286 458.445C788.655 458.445 772.591 474.386 772.591 493.868C772.591 529.411 743.287 558.492 707.469 558.492L325.185 558.492C278.656 558.492 240.593 520.72 240.593 474.546C240.593 428.372 278.656 390.599 325.185 390.599L333.367 390.599C342.702 390.599 350.347 383.022 350.347 373.749C350.347 364.486 342.711 356.9 333.367 356.9L278.288 356.9C255.589 356.9 237.016 338.467 237.016 315.942C237.016 293.445 255.543 275.032 278.202 274.985L322.524 274.985C342.155 274.985 358.218 259.044 358.218 239.563C358.218 204.019 387.522 174.938 423.34 174.938L764.022 174.938L764.022 174.938Z" id="Shape" fill="url(#gradient_1)" fill-rule="evenodd" stroke="none" />
    <path d="M599.401 358.781L584.086 354.122L517.505 352.162L502.489 356.261L504.449 392.85L538.419 414.524L571.368 413.864L592.083 394.989L596.682 376.275L599.401 358.781L599.401 358.781Z" id="Shape" fill="#F8AE9D" stroke="none" />
    <path d="M407.177 417.621C411.666 408.364 415.981 400.808 419.881 394.726C420.167 394.279 420.452 393.84 420.734 393.408C428.82 380.998 441.188 371.996 455.483 368.116L509.787 353.4C509.787 353.4 512.607 407.664 549.956 407.664C587.305 407.664 594.583 356.779 594.583 356.779L657.423 381.852C659.583 382.691 674.159 387.73 691.113 424.099C707.269 458.729 714.327 476.464 714.327 476.464L649.586 495.158L645.548 553.381L646.926 586.632L450.424 586.192L451.524 548.182L450.705 489.899L448.245 493.878L382.845 467.646C382.845 467.646 391.262 450.371 407.177 417.621L407.177 417.621Z" id="Shape" fill="#0011FF" stroke="none" />
    <path d="M556.301 378.139C540.364 377.844 522.258 346.758 522.258 346.758L521.219 266.904C520.386 243.904 534.693 224.307 560.48 224.2L562.874 224.307C586.874 225.453 605.881 242.837 606.523 264.258C607.13 284.195 607.494 306.22 606.714 316.86C605.083 338.885 579.955 335.167 579.955 335.167C579.903 335.167 580.024 346.263 579.955 352.743C579.765 367.296 562.7 378.634 556.301 378.139L556.301 378.139Z" id="Shape" fill="#F8AE9D" stroke="none" />
    <path d="M529.181 271.284C528.743 271.075 511.576 265.342 511.193 282.298C510.809 299.254 528.78 296.128 528.816 295.64C528.852 295.154 529.181 271.284 529.181 271.284L529.181 271.284ZM708.748 478.083L735.081 530.928C738.023 536.833 739.4 543.393 739.08 549.982C738.08 570.496 721.145 586.632 700.611 586.632L624.479 585.435L621.795 547.803L679.257 533.948L657.483 492.779L708.748 478.083L708.748 478.083ZM386.184 468.987C386.184 468.987 369.848 517.513 352.034 561.62C351.673 562.499 351.274 564.14 350.954 565.039C346.935 575.976 359.031 586.632 371.248 586.632L474.198 586.452L474.198 552.982L410.157 539.386L433.35 487.881L386.184 468.987L386.184 468.987Z" id="Shape" fill="#F8AE9D" fill-rule="evenodd" stroke="none" />
    <path d="M592.523 551.443C592.503 551.563 590.163 550.823 586.265 550.583C582.386 550.324 576.887 550.764 571.41 553.102C565.93 555.442 561.792 559.101 559.313 562.08C556.794 565.059 555.714 567.278 555.614 567.198C555.574 567.178 555.814 566.619 556.354 565.659C556.893 564.699 557.754 563.34 558.973 561.8C561.413 558.701 565.571 554.903 571.169 552.523C576.768 550.144 582.386 549.744 586.305 550.144C588.264 550.324 589.844 550.643 590.904 550.923C591.963 551.182 592.543 551.403 592.523 551.443L592.523 551.443ZM589.004 543.346C588.964 543.505 586.585 542.326 582.486 542.205C578.407 542.026 572.669 543.265 567.31 546.505C561.952 549.764 557.933 553.883 555.094 556.841C553.734 558.281 552.615 559.48 551.735 560.4C550.935 561.24 550.495 561.699 550.456 561.659C550.416 561.639 550.816 561.12 551.555 560.241C552.597 558.986 553.663 557.753 554.754 556.541C557.533 553.502 561.532 549.284 566.99 545.964C572.449 542.665 578.347 541.466 582.506 541.766C584.586 541.886 586.245 542.265 587.344 542.645C587.904 542.805 588.304 543.005 588.585 543.125C588.864 543.245 589.004 543.325 589.004 543.346L589.004 543.346Z" id="Shape" fill="#EB996E" fill-rule="evenodd" stroke="none" />
    <path d="M452.544 546.844L467.32 546.844C467.32 546.844 500.67 534.787 507.528 535.947C513.706 536.986 536.32 552.002 540.758 554.981C541.258 555.321 541.618 555.781 541.838 556.341C542.742 558.785 541.549 561.507 539.138 562.499L538.678 562.699L538.879 563.378C539.138 564.218 539.259 565.158 539.218 566.078C539.059 569.257 534.78 570.216 533.161 567.477L534.021 568.997C534.36 569.617 534.541 570.317 534.5 571.016L534.42 572.397C534.332 573.924 533.316 575.242 531.86 575.715C530.48 576.174 528.958 575.774 527.982 574.695C525.123 571.536 518.925 565.218 514.726 564.519C511.007 563.898 504.789 563.818 501.03 563.838C499.124 563.841 497.415 565.018 496.732 566.798C499.21 566.977 516.545 576.014 522.684 579.254C524.584 580.254 526.002 582.053 526.243 584.193C526.462 586.112 525.502 588.132 521.704 587.232C513.547 585.332 498.891 578.594 498.891 578.594C498.891 578.594 491.333 576.435 486.434 579.894C479.537 584.752 476.378 586.531 470.46 584.573C464.54 582.613 460.182 579.794 460.182 579.794L448.526 578.634C448.486 578.634 437.469 551.082 452.544 546.844L452.544 546.844Z" id="Shape" fill="#F8AE9D" stroke="none" />
    <path d="M496.591 552.483C496.612 552.603 498.951 551.863 502.849 551.623C506.729 551.364 512.226 551.804 517.706 554.142C523.183 556.482 527.322 560.141 529.802 563.12C532.321 566.099 533.401 568.318 533.501 568.238C533.541 568.218 533.3 567.659 532.76 566.699C531.989 565.347 531.113 564.057 530.141 562.84C527.703 559.741 523.544 555.943 517.945 553.563C512.346 551.184 506.729 550.784 502.809 551.184C501.258 551.318 499.72 551.579 498.211 551.963C497.152 552.244 496.571 552.443 496.591 552.483L496.591 552.483ZM500.11 544.386C500.15 544.545 502.529 543.366 506.628 543.245C510.707 543.066 516.445 544.305 521.803 547.545C527.161 550.804 531.181 554.923 534.019 557.881C535.38 559.321 536.499 560.52 537.379 561.44C538.178 562.28 538.618 562.739 538.658 562.699C538.698 562.679 538.299 562.16 537.559 561.281C536.518 560.026 535.452 558.793 534.36 557.582C531.581 554.542 527.582 550.324 522.124 547.005C516.665 543.705 510.767 542.506 506.608 542.806C504.528 542.926 502.869 543.305 501.769 543.685C501.21 543.846 500.809 544.045 500.53 544.165C500.25 544.285 500.11 544.366 500.11 544.386L500.11 544.386Z" id="Shape" fill="#EB996E" fill-rule="evenodd" stroke="none" />
    <path d="M472.539 587.573L627.673 587.573C632.082 587.577 635.708 584.1 635.89 579.695L640.549 472.925C640.749 468.247 637.01 464.328 632.332 464.328L468.18 464.328C463.501 464.328 459.762 468.227 459.943 472.906L464.301 579.695C464.481 584.093 468.12 587.573 472.539 587.573L472.539 587.573Z" id="Shape" fill="#31446C" stroke="none" />
    <path d="M534.579 527.926C534.576 532.136 536.247 536.173 539.223 539.149C542.199 542.124 546.236 543.794 550.445 543.791C554.653 543.794 558.69 542.123 561.666 539.147C564.642 536.171 566.312 532.134 566.308 527.926C566.312 523.717 564.641 519.68 561.665 516.704C558.689 513.728 554.652 512.058 550.443 512.062C541.672 512.062 534.579 519.191 534.579 527.926L534.579 527.926Z" id="Shape" fill="#FFFFFF" stroke="none" />
    <path d="M535.18 302.177L521.184 302.177L521.184 362.159L535.18 362.159L535.18 302.177Z" id="Shape" fill="#F8AE9D" stroke="none" />
    <path d="M529.686 248.581C532.208 251.835 536.656 252.552 540.32 253.197C545.245 254.061 547.682 255.862 550.239 260.698C551.857 263.786 553.476 267.169 556.374 268.842C558.729 270.209 558.644 266.725 559.017 264.029C559.052 263.79 559.1 263.553 559.161 263.32C559.731 261.167 562.023 261.533 562.695 263.657C563.309 265.57 564.622 267.188 566.292 268.088C566.564 268.235 566.854 268.364 567.144 268.309C567.535 268.254 567.842 267.886 568.097 267.556C568.633 266.863 569.166 265.981 569.715 265.05C571.522 261.987 574.941 263.081 576.96 266.011C578.22 267.831 579.72 269.706 581.782 270.129C582.446 270.276 583.282 270.166 583.588 269.523C583.981 268.731 583.368 267.941 583.47 267.132C583.555 266.379 583.879 266.047 584.237 265.404C585.64 262.907 588.854 262.817 590.83 264.892C592.205 266.334 593.638 267.719 595.126 269.044C595.756 269.597 596.676 270.148 597.307 269.597C597.648 269.302 597.733 268.805 597.802 268.327C598.159 265.992 598.5 263.657 598.858 261.322C599.062 260.017 599.761 258.307 600.954 258.638C601.533 258.804 601.875 259.41 602.197 259.962C602.59 260.66 609.594 268.622 609.73 268.014C610.821 263.492 613.053 259.374 614.144 254.851C621.199 225.746 589.894 202.341 565.984 202.213C560.668 202.177 555.811 202.263 550.648 203.494C545.142 204.818 539.332 206.92 534.339 209.88C527.335 214.016 522.034 221.536 523.398 230.509" id="Shape" fill="#31446C" stroke="none" />
    <path d="M542.26 238.743C545.778 242.606 546.709 248.041 547.037 253.174C547.52 260.916 546.865 268.96 543.174 275.833C542.123 277.79 541.346 287.471 539.726 286.937C539.208 286.77 539.294 279.261 537.932 275.214C535.827 268.943 526.136 266.552 521.772 270.515C514.806 276.82 518.892 284.478 521.204 289.244C522.584 292.12 524.773 295.348 525.153 298.391C525.618 302.288 525.757 316.485 523.135 319.796C520.945 322.571 518.617 309.161 516.634 306.518C501.958 286.837 487.885 236.72 512.943 225.85C516.754 224.194 528.516 223.342 532.086 225.449" id="Shape" fill="#31446C" stroke="none" />
    <path d="M705.069 251.572L709.735 251.572C710.863 251.572 711.772 250.654 711.772 249.535L711.772 244.868C711.772 243.74 710.854 242.831 709.735 242.831L705.069 242.831C703.945 242.835 703.036 243.745 703.031 244.868L703.031 249.535C703.03 250.075 703.244 250.594 703.627 250.977C704.009 251.359 704.528 251.573 705.069 251.572L705.069 251.572ZM721.249 251.572L725.915 251.572C727.038 251.568 727.948 250.658 727.952 249.535L727.952 244.868C727.952 243.74 727.035 242.831 725.915 242.831L721.249 242.831C720.126 242.835 719.216 243.745 719.212 244.868L719.212 249.535C719.216 250.658 720.126 251.568 721.249 251.572L721.249 251.572ZM737.439 251.572L742.106 251.572C743.229 251.568 744.139 250.658 744.143 249.535L744.143 244.868C744.143 243.74 743.225 242.831 742.106 242.831L737.439 242.831C736.316 242.835 735.406 243.745 735.402 244.868L735.402 249.535C735.401 250.075 735.615 250.594 735.998 250.977C736.38 251.359 736.899 251.573 737.44 251.572L737.439 251.572ZM753.62 251.572L758.286 251.572C759.41 251.568 760.319 250.658 760.323 249.535L760.323 244.868C760.323 243.74 759.406 242.831 758.286 242.831L753.62 242.831C752.492 242.831 751.573 243.749 751.573 244.868L751.573 249.535C751.585 250.658 752.496 251.565 753.62 251.572L753.62 251.572ZM769.802 251.572L774.468 251.572C775.596 251.572 776.515 250.654 776.515 249.535L776.515 244.868C776.515 243.74 775.596 242.831 774.468 242.831L769.802 242.831C768.679 242.835 767.769 243.745 767.765 244.868L767.765 249.535C767.769 250.658 768.678 251.568 769.802 251.572L769.802 251.572ZM721.842 233.928L726.509 233.928C727.627 233.928 728.546 233.009 728.546 231.891L728.546 227.213C728.541 226.09 727.631 225.181 726.509 225.177L721.842 225.177C720.713 225.177 719.805 226.095 719.805 227.213L719.805 231.881C719.802 232.423 720.015 232.944 720.398 233.328C720.78 233.713 721.3 233.928 721.842 233.928L721.842 233.928ZM738.023 233.928L742.689 233.928C743.812 233.924 744.722 233.014 744.726 231.891L744.726 227.213C744.721 226.09 743.812 225.181 742.689 225.177L738.023 225.177C736.9 225.181 735.991 226.09 735.986 227.213L735.986 231.881C735.982 232.423 736.196 232.944 736.578 233.328C736.961 233.713 737.481 233.928 738.023 233.928L738.023 233.928ZM754.203 233.928L758.87 233.928C759.999 233.928 760.917 233.009 760.917 231.891L760.917 227.213C760.917 226.095 759.999 225.177 758.87 225.177L754.203 225.177C753.08 225.181 752.171 226.09 752.166 227.213L752.166 231.881C752.166 233.009 753.085 233.928 754.203 233.928L754.203 233.928ZM737.439 270.526L742.106 270.526C743.229 270.522 744.139 269.612 744.143 268.489L744.143 263.821C744.143 262.693 743.225 261.784 742.106 261.784L737.439 261.784C736.316 261.788 735.406 262.698 735.402 263.821L735.402 268.489C735.401 269.03 735.615 269.548 735.997 269.931C736.38 270.313 736.899 270.527 737.439 270.526L737.439 270.526ZM753.62 270.526L758.286 270.526C759.409 270.522 760.319 269.612 760.323 268.489L760.323 263.821C760.323 262.693 759.406 261.784 758.286 261.784L753.62 261.784C752.492 261.784 751.573 262.703 751.573 263.821L751.573 268.489C751.585 269.613 752.496 270.519 753.62 270.526L753.62 270.526Z" id="Shape" fill="#E1E4E5" fill-rule="evenodd" stroke="none" />
    <path d="M782.419 361.339C782.706 352.372 784.741 343.204 788.324 334.635C834.98 351 821.309 331.779 793.081 325.268C800.675 312.559 812.196 302.249 827.271 297.48C845.527 291.71 867.164 304.849 881.12 324.24C859.168 333.35 863.839 362.339 886.595 332.836C891.151 341.004 894.275 349.801 895.335 358.569C898 380.16 888.056 401.351 855.872 410.775C804 426.055 781.273 395.125 782.419 361.339L782.419 361.339ZM815.034 350.315C801.335 350.715 820.508 366.052 830.768 358.627C837.187 353.943 828.76 349.915 815.034 350.315L815.034 350.315Z" id="Shape" fill="#0011FF" fill-rule="evenodd" stroke="none" />
    <path d="M868.395 581.875C870.659 407.063 827.299 297.508 827.299 297.508" id="Shape" fill="none" stroke="#666AF6" stroke-width="2.5" />
    <path d="M879.995 372.705C887.16 402.95 895.155 386.099 886.501 366.222C900.572 354.169 921.207 347.887 944.104 354.598C962.59 360.025 971.359 373.105 972.793 387.842C943.188 386.413 935.966 405.32 972.936 394.838C971.187 427.796 936.368 464.21 892.977 441.79C861.138 425.34 862.026 393.725 879.995 372.705L879.995 372.705ZM922.897 413.031C938.603 417.23 939.376 405.663 925.649 404.063C915.876 402.922 907.192 408.833 922.897 413.031L922.897 413.031Z" id="Shape" fill="#0011FF" fill-rule="evenodd" stroke="none" />
    <path d="M881.923 526.385C874.729 416.631 937.549 361.367 937.549 361.367" id="Shape" fill="none" stroke="#666AF6" stroke-width="2.5" />
    <path d="M756.385 437.291C741.138 417.413 740.765 384.883 752.487 375.173C763.578 365.978 777.735 364.863 791.378 368.633C787.909 389.31 804.818 398.392 800.777 372.06C832.56 386.255 856.318 424.724 820.953 443.745C794.014 458.196 774.754 454.627 762.232 443.631C807.856 440.718 784.498 428.408 756.385 437.291L756.385 437.291ZM768.307 403.847C755.009 407.759 756.872 411.929 771.603 413.042C786.305 414.157 785.473 398.849 768.307 403.847L768.307 403.847Z" id="Shape" fill="#0011FF" fill-rule="evenodd" stroke="none" />
    <path d="M843.061 525.384C847.447 416.628 761.584 376.873 761.584 376.873" id="Shape" fill="none" stroke="#666AF6" stroke-width="2.5" />
    <path d="M930.011 513.429L794.574 513.429L813.228 566.108C818.004 579.589 830.817 588.636 845.183 588.636L879.43 588.636C893.798 588.636 906.608 579.616 911.383 566.109L913.734 566.941L911.383 566.109L930.011 513.429L930.011 513.429Z" id="Shape" fill="#FFFFFF" stroke="#E1E4E5" stroke-width="4" />
    <path d="M949.138 511.583L949.138 503.46L777.13 503.46L777.13 511.583L949.139 511.583L949.138 511.583Z" id="Shape" fill="#E1E4E5" stroke="#E1E4E5" stroke-width="4" />
    <path d="M261.324 514.498L267.027 585.44L306.495 585.44L312.211 514.498L261.324 514.498L261.324 514.498Z" id="Shape" fill="#0011FF" stroke="none" />
    <path d="M258.06 508.102L316.08 508.102L316.08 518.442L258.06 518.442L258.06 508.102L258.06 508.102ZM262.036 508.102L312.106 508.102L309.182 496.476L264.972 496.476L262.036 508.102L262.036 508.102Z" id="Shape" fill="#31446C" fill-rule="evenodd" stroke="none" />
    <path d="M275.466 550.629C275.466 553.709 276.689 556.661 278.866 558.837C281.043 561.013 283.995 562.234 287.073 562.233C290.15 562.233 293.101 561.01 295.277 558.834C297.453 556.658 298.675 553.706 298.674 550.629C298.674 547.547 297.451 544.596 295.274 542.42C293.097 540.244 290.144 539.023 287.066 539.025C283.989 539.025 281.038 540.248 278.863 542.424C276.687 544.601 275.465 547.552 275.466 550.629L275.466 550.629Z" id="Shape" fill="#FFFFFF" stroke="none" />
    <path d="M379.583 284.507L379.583 225.371C379.583 219.245 374.631 214.283 368.517 214.283L302.13 214.283C296.016 214.283 291.064 219.245 291.064 225.371L291.064 284.507C291.064 288.535 293.245 292.243 296.761 294.2L329.952 312.675C333.292 314.538 337.359 314.538 340.7 312.675L373.895 294.198C377.407 292.237 379.583 288.529 379.583 284.507L379.583 284.507Z" id="Shape" fill="#ACADAE" fill-rule="evenodd" stroke="none" />
    <g id="Group" transform="translate(316.92273 244.69672)">
      <path d="M36.7991 18.4859L0 18.4859" id="Line" fill="none" fill-rule="evenodd" stroke="#FFFFFF" stroke-width="2.677" stroke-linecap="round" stroke-linejoin="round" />
      <path d="M36.7991 1.24667L0 1.24667" id="Line" fill="none" fill-rule="evenodd" stroke="#FFFFFF" stroke-width="2.677" stroke-linecap="round" stroke-linejoin="round" />
      <path d="M36.7991 35.23L0 35.23" id="Line" fill="none" fill-rule="evenodd" stroke="#FFFFFF" stroke-width="2.677" stroke-linecap="round" stroke-linejoin="round" />
    </g>
    <path d="M953.7 590.992C953.7 589.44 953.151 588.116 952.054 587.019C950.957 585.922 949.633 585.374 948.081 585.374L152.805 585.374C151.254 585.374 149.929 585.922 148.832 587.019C147.735 588.116 147.187 589.44 147.186 590.992C147.187 592.543 147.735 593.867 148.832 594.964C149.929 596.061 151.254 596.61 152.805 596.61L948.081 596.61C949.633 596.61 950.957 596.061 952.054 594.964C953.151 593.867 953.7 592.543 953.7 590.992L953.7 590.992Z" id="Rectangle" fill="#E1E4E5" fill-rule="evenodd" stroke="none" />
    <path d="M355.639 471.033C356.052 470.619 356.259 470.12 356.259 469.535C356.259 468.95 356.052 468.45 355.638 468.036L332.914 445.312C332.5 444.898 332.001 444.691 331.416 444.691C330.831 444.691 330.331 444.898 329.918 445.312C329.504 445.726 329.297 446.225 329.297 446.81C329.297 447.395 329.504 447.895 329.918 448.309L352.642 471.033C353.056 471.446 353.555 471.653 354.14 471.654C354.726 471.654 355.225 471.447 355.639 471.033L355.639 471.033Z" id="Rectangle" fill="#E1E4E5" fill-rule="evenodd" stroke="none" />
    <path d="M341.693 471.131C342.106 470.717 342.313 470.218 342.313 469.632C342.313 469.047 342.106 468.548 341.692 468.134L335.139 461.581C334.725 461.167 334.225 460.96 333.64 460.96C333.055 460.96 332.556 461.167 332.142 461.58C331.728 461.994 331.522 462.493 331.522 463.079C331.522 463.664 331.729 464.163 332.143 464.577L338.696 471.13C339.11 471.544 339.609 471.751 340.194 471.751C340.779 471.751 341.279 471.544 341.693 471.131L341.693 471.131Z" id="Rectangle" fill="#E1E4E5" fill-rule="evenodd" stroke="none" />
  </g>
</svg>