<?xml version="1.0" encoding="utf-8"?>
<svg width="100px" height="100px" viewBox="0 0 100 100" version="1.1" xmlns:xlink="http://www.w3.org/1999/xlink" xmlns="http://www.w3.org/2000/svg">
  <defs>
    <path d="M0 0L100 0L100 100L0 100L0 0Z" id="path_1" />
    <clipPath id="mask_1">
      <use xlink:href="#path_1" />
    </clipPath>
  </defs>
  <g id="badge_FILL0_wght400_GRAD0_opsz48" transform="translate(64 998.0117)">
    <path d="M0 0L100 0L100 100L0 100L0 0Z" id="Background" fill="#FFFFFF" fill-opacity="0" fill-rule="evenodd" stroke="none" />
    <g clip-path="url(#mask_1)">
      <path d="M14.5834 91.6663C12.9167 91.6663 11.4584 91.0413 10.2084 89.7913C8.95837 88.5413 8.33337 87.083 8.33337 85.4163L8.33337 35.4163C8.33337 33.7497 8.95837 32.2913 10.2084 31.0413C11.4584 29.7913 12.9167 29.1663 14.5834 29.1663L39.2709 29.1663L39.2709 14.583C39.2709 12.9163 39.8959 11.458 41.1459 10.208C42.3959 8.95801 43.8542 8.33301 45.5209 8.33301L54.5834 8.33301C56.25 8.33301 57.7084 8.95801 58.9584 10.208C60.2084 11.458 60.8334 12.9163 60.8334 14.583L60.8334 29.1663L85.4167 29.1663C87.0834 29.1663 88.5417 29.7913 89.7917 31.0413C91.0417 32.2913 91.6667 33.7497 91.6667 35.4163L91.6667 85.4163C91.6667 87.083 91.0417 88.5413 89.7917 89.7913C88.5417 91.0413 87.0834 91.6663 85.4167 91.6663L14.5834 91.6663ZM14.5834 85.416L85.4167 85.416L85.4167 35.416L60.8334 35.416C60.8334 37.3605 60.191 38.8882 58.9063 39.9994C57.6216 41.1105 56.007 41.666 54.0625 41.666L45.9375 41.666C44.0625 41.666 42.4827 41.1105 41.198 39.9994C39.9132 38.8882 39.2709 37.3605 39.2709 35.416L14.5834 35.416L14.5834 85.416L14.5834 85.416ZM24.1667 74.2708L49.0626 74.2708L49.0626 72.8125C49.0626 71.5625 48.7501 70.4514 48.1251 69.4792C47.5001 68.5069 46.7015 67.8472 45.7292 67.5C43.507 66.7361 41.7709 66.2326 40.5209 65.9896C39.2709 65.7465 38.0556 65.625 36.8751 65.625C35.5556 65.625 34.1494 65.7813 32.6563 66.0938C31.1633 66.4063 29.4792 66.875 27.6042 67.5C26.5626 67.8472 25.7292 68.5069 25.1042 69.4792C24.4792 70.4514 24.1667 71.5625 24.1667 72.8125L24.1667 74.2708ZM59.1667 67.2913L76.8751 67.2913L76.8751 62.083L59.1668 62.083L59.1667 67.2913ZM36.875 62.083C38.4722 62.083 39.809 61.5275 40.8854 60.4163C41.9618 59.3052 42.5 57.9858 42.5 56.458C42.5 54.8608 41.9618 53.524 40.8854 52.4476C39.809 51.3712 38.4722 50.833 36.875 50.833C35.3472 50.833 34.0278 51.3712 32.9167 52.4476C31.8056 53.524 31.25 54.8608 31.25 56.458C31.25 57.9858 31.8056 59.3052 32.9167 60.4163C34.0278 61.5275 35.3472 62.083 36.875 62.083L36.875 62.083ZM59.1667 55.5208L76.8751 55.5208L76.8751 50.3125L59.1667 50.3125L59.1667 55.5208ZM45.5209 35.4163L54.5834 35.4163L54.5834 14.583L45.5209 14.583L45.5209 35.4163Z" id="Shape" fill="#000000" fill-rule="evenodd" stroke="none" />
    </g>
  </g>
</svg>