<?xml version="1.0" encoding="utf-8"?>
<svg width="74px" height="73px" viewBox="0 0 74 73" version="1.1" xmlns:xlink="http://www.w3.org/1999/xlink" xmlns="http://www.w3.org/2000/svg">
  <defs>
    <path d="M0 35.5C0 19.0698 11.1617 5.24662 26.3162 1.19938C29.2455 0.417054 32.3241 0 35.5 0C55.1061 0 71 15.8939 71 35.5C71 55.1061 55.1061 71 35.5 71C15.8939 71 0 55.1061 0 35.5Z" id="path_1" />
    <path d="M0 0L48.6857 0L48.6857 48.6857L0 48.6857L0 0Z" id="path_2" />
    <clipPath id="clip_1">
      <use xlink:href="#path_1" />
    </clipPath>
    <clipPath id="mask_1">
      <use xlink:href="#path_2" />
    </clipPath>
  </defs>
  <g id="Group-3-Copy" transform="translate(876 28)">
    <path d="M3 37.5C3 17.8939 18.8939 2 38.5 2C58.1061 2 74 17.8939 74 37.5C74 57.1061 58.1061 73 38.5 73C18.8939 73 3 57.1061 3 37.5Z" id="Oval-Copy" fill="#020B85" fill-rule="evenodd" stroke="none" />
    <g id="Oval">
      <use stroke="none" fill="#FFFFFF" xlink:href="#path_1" fill-rule="evenodd" />
      <g clip-path="url(#clip_1)">
        <use xlink:href="#path_1" fill="none" stroke="#0011FF" stroke-width="6" />
      </g>
    </g>
    <g id="wifi_off_FILL1_wght400_GRAD0_opsz48" transform="translate(11.157308 11.157308)">
      <path d="M0 0L48.6857 0L48.6857 48.6857L0 48.6857L0 0Z" id="Background" fill="#FFFFFF" fill-opacity="0" fill-rule="evenodd" stroke="none" />
      <g clip-path="url(#mask_1)">
        <path d="M45.4909 22.0103C42.5156 19.1703 39.2615 16.9051 35.7284 15.2146C32.1953 13.5241 28.4002 12.6789 24.343 12.6789C23.0921 12.6789 21.8918 12.755 20.7423 12.9071C19.5928 13.0593 18.6292 13.2706 17.8516 13.541L14.1494 9.8389C15.6371 9.29795 17.2515 8.87533 18.9927 8.57104C20.7338 8.26676 22.5173 8.11462 24.343 8.11462C29.0763 8.11462 33.5308 9.09509 37.7062 11.056C41.8817 13.017 45.5416 15.6034 48.6859 18.8153L45.4909 22.0103ZM36.92 30.5815C35.8043 29.4996 34.79 28.629 33.8772 27.9698C32.9643 27.3105 31.7979 26.6596 30.3779 26.0173L24.6472 20.2865C27.8591 20.3542 30.6906 21.0134 33.1418 22.2644C35.593 23.5153 37.9174 25.2227 40.1151 27.3865L36.92 30.5815ZM40.825 45.1862L20.8436 25.2048C19.0179 25.6443 17.3358 26.3543 15.7975 27.3348C14.2592 28.3152 12.9152 29.3972 11.7657 30.5805L8.57071 27.3855C9.82167 26.1345 11.1149 25.0357 12.4504 24.0891C13.7858 23.1424 15.3833 22.2971 17.2429 21.5533L11.6136 15.9241C10.0245 16.7017 8.52 17.623 7.1 18.688C5.68 19.753 4.37833 20.8602 3.195 22.0098L0 18.8148C1.21714 17.5638 2.51881 16.3974 3.905 15.3155C5.29119 14.2336 6.71119 13.3038 8.165 12.5262L3.49928 7.86048L5.68 5.67977L43.0057 43.0055L40.825 45.1862ZM24.3428 43.158L16.8371 35.6016C17.8176 34.6211 18.9417 33.852 20.2096 33.2941C21.4774 32.7362 22.8552 32.4573 24.3428 32.4573C25.8304 32.4573 27.2082 32.7362 28.476 33.2941C29.7439 33.852 30.868 34.6211 31.8485 35.6016L24.3428 43.158Z" id="Shape" fill="#0011FF" fill-rule="evenodd" stroke="none" />
      </g>
    </g>
  </g>
</svg>